ISO-10303-21;
HEADER;
FILE_DESCRIPTION(('growcube generated model'),'2;1');
FILE_NAME('ESP32-PICO-MINI-02.step','2026-10-02T00:00:00',(''),(''),'gen_models.py','','');
FILE_SCHEMA(('AUTOMOTIVE_DESIGN { 1 0 10303 214 1 1 1 1 }'));
ENDSEC;
DATA;
#1=APPLICATION_CONTEXT('automotive design');
#2=APPLICATION_PROTOCOL_DEFINITION('international standard','automotive_design',2000,#1);
#3=PRODUCT_CONTEXT('',#1,'mechanical');
#4=PRODUCT('ESP32-PICO-MINI-02','ESP32-PICO-MINI-02','',(#3));
#5=PRODUCT_DEFINITION_FORMATION('','',#4);
#6=PRODUCT_DEFINITION_CONTEXT('part definition',#1,'design');
#7=PRODUCT_DEFINITION('design','',#5,#6);
#8=PRODUCT_DEFINITION_SHAPE('','',#7);
#9=(LENGTH_UNIT()NAMED_UNIT(*)SI_UNIT(.MILLI.,.METRE.));
#10=(NAMED_UNIT(*)PLANE_ANGLE_UNIT()SI_UNIT($,.RADIAN.));
#11=(NAMED_UNIT(*)SI_UNIT($,.STERADIAN.)SOLID_ANGLE_UNIT());
#12=UNCERTAINTY_MEASURE_WITH_UNIT(LENGTH_MEASURE(1.E-05),#9,'distance_accuracy_value','');
#13=(GEOMETRIC_REPRESENTATION_CONTEXT(3)GLOBAL_UNCERTAINTY_ASSIGNED_CONTEXT((#12))GLOBAL_UNIT_ASSIGNED_CONTEXT((#9,#10,#11))REPRESENTATION_CONTEXT('',''));
#14=CARTESIAN_POINT('',(0.0000,0.0000,0.0000));
#15=DIRECTION('',(0.0000,0.0000,1.0000));
#16=DIRECTION('',(1.0000,0.0000,0.0000));
#17=AXIS2_PLACEMENT_3D('',#14,#15,#16);
#18=CARTESIAN_POINT('',(0.0000,-13.2000,0.0000));
#19=VERTEX_POINT('',#18);
#20=CARTESIAN_POINT('',(0.0000,-13.2000,0.8000));
#21=VERTEX_POINT('',#20);
#22=CARTESIAN_POINT('',(0.0000,0.0000,0.0000));
#23=VERTEX_POINT('',#22);
#24=CARTESIAN_POINT('',(0.0000,0.0000,0.8000));
#25=VERTEX_POINT('',#24);
#26=CARTESIAN_POINT('',(16.6000,-13.2000,0.0000));
#27=VERTEX_POINT('',#26);
#28=CARTESIAN_POINT('',(16.6000,-13.2000,0.8000));
#29=VERTEX_POINT('',#28);
#30=CARTESIAN_POINT('',(16.6000,0.0000,0.0000));
#31=VERTEX_POINT('',#30);
#32=CARTESIAN_POINT('',(16.6000,0.0000,0.8000));
#33=VERTEX_POINT('',#32);
#34=CARTESIAN_POINT('',(0.0000,-13.2000,0.8000));
#35=DIRECTION('',(1.0000,0.0000,0.0000));
#36=VECTOR('',#35,16.6000);
#37=LINE('',#34,#36);
#38=EDGE_CURVE('',#21,#29,#37,.T.);
#39=ORIENTED_EDGE('',*,*,#38,.T.);
#40=CARTESIAN_POINT('',(16.6000,-13.2000,0.8000));
#41=DIRECTION('',(0.0000,1.0000,0.0000));
#42=VECTOR('',#41,13.2000);
#43=LINE('',#40,#42);
#44=EDGE_CURVE('',#29,#33,#43,.T.);
#45=ORIENTED_EDGE('',*,*,#44,.T.);
#46=CARTESIAN_POINT('',(16.6000,0.0000,0.8000));
#47=DIRECTION('',(-1.0000,0.0000,0.0000));
#48=VECTOR('',#47,16.6000);
#49=LINE('',#46,#48);
#50=EDGE_CURVE('',#33,#25,#49,.T.);
#51=ORIENTED_EDGE('',*,*,#50,.T.);
#52=CARTESIAN_POINT('',(0.0000,0.0000,0.8000));
#53=DIRECTION('',(0.0000,-1.0000,0.0000));
#54=VECTOR('',#53,13.2000);
#55=LINE('',#52,#54);
#56=EDGE_CURVE('',#25,#21,#55,.T.);
#57=ORIENTED_EDGE('',*,*,#56,.T.);
#58=EDGE_LOOP('',(#39,#45,#51,#57));
#59=FACE_OUTER_BOUND('',#58,.T.);
#60=CARTESIAN_POINT('',(0.0000,-13.2000,0.8000));
#61=DIRECTION('',(0.0000,0.0000,1.0000));
#62=DIRECTION('',(1.0000,0.0000,0.0000));
#63=AXIS2_PLACEMENT_3D('',#60,#61,#62);
#64=PLANE('',#63);
#65=ADVANCED_FACE('',(#59),#64,.T.);
#66=CARTESIAN_POINT('',(0.0000,-13.2000,0.0000));
#67=DIRECTION('',(0.0000,1.0000,0.0000));
#68=VECTOR('',#67,13.2000);
#69=LINE('',#66,#68);
#70=EDGE_CURVE('',#19,#23,#69,.T.);
#71=ORIENTED_EDGE('',*,*,#70,.T.);
#72=CARTESIAN_POINT('',(0.0000,0.0000,0.0000));
#73=DIRECTION('',(1.0000,0.0000,0.0000));
#74=VECTOR('',#73,16.6000);
#75=LINE('',#72,#74);
#76=EDGE_CURVE('',#23,#31,#75,.T.);
#77=ORIENTED_EDGE('',*,*,#76,.T.);
#78=CARTESIAN_POINT('',(16.6000,0.0000,0.0000));
#79=DIRECTION('',(0.0000,-1.0000,0.0000));
#80=VECTOR('',#79,13.2000);
#81=LINE('',#78,#80);
#82=EDGE_CURVE('',#31,#27,#81,.T.);
#83=ORIENTED_EDGE('',*,*,#82,.T.);
#84=CARTESIAN_POINT('',(16.6000,-13.2000,0.0000));
#85=DIRECTION('',(-1.0000,0.0000,0.0000));
#86=VECTOR('',#85,16.6000);
#87=LINE('',#84,#86);
#88=EDGE_CURVE('',#27,#19,#87,.T.);
#89=ORIENTED_EDGE('',*,*,#88,.T.);
#90=EDGE_LOOP('',(#71,#77,#83,#89));
#91=FACE_OUTER_BOUND('',#90,.T.);
#92=CARTESIAN_POINT('',(0.0000,-13.2000,0.0000));
#93=DIRECTION('',(0.0000,0.0000,-1.0000));
#94=DIRECTION('',(1.0000,0.0000,0.0000));
#95=AXIS2_PLACEMENT_3D('',#92,#93,#94);
#96=PLANE('',#95);
#97=ADVANCED_FACE('',(#91),#96,.T.);
#98=ORIENTED_EDGE('',*,*,#82,.F.);
#99=CARTESIAN_POINT('',(16.6000,0.0000,0.0000));
#100=DIRECTION('',(0.0000,0.0000,1.0000));
#101=VECTOR('',#100,0.8000);
#102=LINE('',#99,#101);
#103=EDGE_CURVE('',#31,#33,#102,.T.);
#104=ORIENTED_EDGE('',*,*,#103,.T.);
#105=ORIENTED_EDGE('',*,*,#44,.F.);
#106=CARTESIAN_POINT('',(16.6000,-13.2000,0.8000));
#107=DIRECTION('',(0.0000,0.0000,-1.0000));
#108=VECTOR('',#107,0.8000);
#109=LINE('',#106,#108);
#110=EDGE_CURVE('',#29,#27,#109,.T.);
#111=ORIENTED_EDGE('',*,*,#110,.T.);
#112=EDGE_LOOP('',(#98,#104,#105,#111));
#113=FACE_OUTER_BOUND('',#112,.T.);
#114=CARTESIAN_POINT('',(16.6000,-13.2000,0.0000));
#115=DIRECTION('',(1.0000,0.0000,0.0000));
#116=DIRECTION('',(0.0000,1.0000,0.0000));
#117=AXIS2_PLACEMENT_3D('',#114,#115,#116);
#118=PLANE('',#117);
#119=ADVANCED_FACE('',(#113),#118,.T.);
#120=CARTESIAN_POINT('',(0.0000,-13.2000,0.0000));
#121=DIRECTION('',(0.0000,0.0000,1.0000));
#122=VECTOR('',#121,0.8000);
#123=LINE('',#120,#122);
#124=EDGE_CURVE('',#19,#21,#123,.T.);
#125=ORIENTED_EDGE('',*,*,#124,.T.);
#126=ORIENTED_EDGE('',*,*,#56,.F.);
#127=CARTESIAN_POINT('',(0.0000,0.0000,0.8000));
#128=DIRECTION('',(0.0000,0.0000,-1.0000));
#129=VECTOR('',#128,0.8000);
#130=LINE('',#127,#129);
#131=EDGE_CURVE('',#25,#23,#130,.T.);
#132=ORIENTED_EDGE('',*,*,#131,.T.);
#133=ORIENTED_EDGE('',*,*,#70,.F.);
#134=EDGE_LOOP('',(#125,#126,#132,#133));
#135=FACE_OUTER_BOUND('',#134,.T.);
#136=CARTESIAN_POINT('',(0.0000,-13.2000,0.0000));
#137=DIRECTION('',(-1.0000,0.0000,0.0000));
#138=DIRECTION('',(0.0000,1.0000,0.0000));
#139=AXIS2_PLACEMENT_3D('',#136,#137,#138);
#140=PLANE('',#139);
#141=ADVANCED_FACE('',(#135),#140,.T.);
#142=ORIENTED_EDGE('',*,*,#131,.F.);
#143=ORIENTED_EDGE('',*,*,#50,.F.);
#144=ORIENTED_EDGE('',*,*,#103,.F.);
#145=ORIENTED_EDGE('',*,*,#76,.F.);
#146=EDGE_LOOP('',(#142,#143,#144,#145));
#147=FACE_OUTER_BOUND('',#146,.T.);
#148=CARTESIAN_POINT('',(0.0000,0.0000,0.0000));
#149=DIRECTION('',(0.0000,1.0000,0.0000));
#150=DIRECTION('',(1.0000,0.0000,0.0000));
#151=AXIS2_PLACEMENT_3D('',#148,#149,#150);
#152=PLANE('',#151);
#153=ADVANCED_FACE('',(#147),#152,.T.);
#154=ORIENTED_EDGE('',*,*,#88,.F.);
#155=ORIENTED_EDGE('',*,*,#110,.F.);
#156=ORIENTED_EDGE('',*,*,#38,.F.);
#157=ORIENTED_EDGE('',*,*,#124,.F.);
#158=EDGE_LOOP('',(#154,#155,#156,#157));
#159=FACE_OUTER_BOUND('',#158,.T.);
#160=CARTESIAN_POINT('',(0.0000,-13.2000,0.0000));
#161=DIRECTION('',(0.0000,-1.0000,0.0000));
#162=DIRECTION('',(1.0000,0.0000,0.0000));
#163=AXIS2_PLACEMENT_3D('',#160,#161,#162);
#164=PLANE('',#163);
#165=ADVANCED_FACE('',(#159),#164,.T.);
#166=CLOSED_SHELL('',(#65,#97,#119,#141,#153,#165));
#167=MANIFOLD_SOLID_BREP('',#166);
#168=COLOUR_RGB('',0.070,0.070,0.080);
#169=FILL_AREA_STYLE_COLOUR('',#168);
#170=FILL_AREA_STYLE('',(#169));
#171=SURFACE_STYLE_FILL_AREA(#170);
#172=SURFACE_SIDE_STYLE('',(#171));
#173=SURFACE_STYLE_USAGE(.BOTH.,#172);
#174=PRESENTATION_STYLE_ASSIGNMENT((#173));
#175=STYLED_ITEM('',(#174),#167);
#176=CARTESIAN_POINT('',(5.8000,-12.9000,0.8000));
#177=VERTEX_POINT('',#176);
#178=CARTESIAN_POINT('',(5.8000,-12.9000,2.4000));
#179=VERTEX_POINT('',#178);
#180=CARTESIAN_POINT('',(5.8000,-0.3000,0.8000));
#181=VERTEX_POINT('',#180);
#182=CARTESIAN_POINT('',(5.8000,-0.3000,2.4000));
#183=VERTEX_POINT('',#182);
#184=CARTESIAN_POINT('',(16.4000,-12.9000,0.8000));
#185=VERTEX_POINT('',#184);
#186=CARTESIAN_POINT('',(16.4000,-12.9000,2.4000));
#187=VERTEX_POINT('',#186);
#188=CARTESIAN_POINT('',(16.4000,-0.3000,0.8000));
#189=VERTEX_POINT('',#188);
#190=CARTESIAN_POINT('',(16.4000,-0.3000,2.4000));
#191=VERTEX_POINT('',#190);
#192=CARTESIAN_POINT('',(5.8000,-12.9000,2.4000));
#193=DIRECTION('',(1.0000,0.0000,0.0000));
#194=VECTOR('',#193,10.6000);
#195=LINE('',#192,#194);
#196=EDGE_CURVE('',#179,#187,#195,.T.);
#197=ORIENTED_EDGE('',*,*,#196,.T.);
#198=CARTESIAN_POINT('',(16.4000,-12.9000,2.4000));
#199=DIRECTION('',(0.0000,1.0000,0.0000));
#200=VECTOR('',#199,12.6000);
#201=LINE('',#198,#200);
#202=EDGE_CURVE('',#187,#191,#201,.T.);
#203=ORIENTED_EDGE('',*,*,#202,.T.);
#204=CARTESIAN_POINT('',(16.4000,-0.3000,2.4000));
#205=DIRECTION('',(-1.0000,0.0000,0.0000));
#206=VECTOR('',#205,10.6000);
#207=LINE('',#204,#206);
#208=EDGE_CURVE('',#191,#183,#207,.T.);
#209=ORIENTED_EDGE('',*,*,#208,.T.);
#210=CARTESIAN_POINT('',(5.8000,-0.3000,2.4000));
#211=DIRECTION('',(0.0000,-1.0000,0.0000));
#212=VECTOR('',#211,12.6000);
#213=LINE('',#210,#212);
#214=EDGE_CURVE('',#183,#179,#213,.T.);
#215=ORIENTED_EDGE('',*,*,#214,.T.);
#216=EDGE_LOOP('',(#197,#203,#209,#215));
#217=FACE_OUTER_BOUND('',#216,.T.);
#218=CARTESIAN_POINT('',(5.8000,-12.9000,2.4000));
#219=DIRECTION('',(0.0000,0.0000,1.0000));
#220=DIRECTION('',(1.0000,0.0000,0.0000));
#221=AXIS2_PLACEMENT_3D('',#218,#219,#220);
#222=PLANE('',#221);
#223=ADVANCED_FACE('',(#217),#222,.T.);
#224=CARTESIAN_POINT('',(5.8000,-12.9000,0.8000));
#225=DIRECTION('',(0.0000,1.0000,0.0000));
#226=VECTOR('',#225,12.6000);
#227=LINE('',#224,#226);
#228=EDGE_CURVE('',#177,#181,#227,.T.);
#229=ORIENTED_EDGE('',*,*,#228,.T.);
#230=CARTESIAN_POINT('',(5.8000,-0.3000,0.8000));
#231=DIRECTION('',(1.0000,0.0000,0.0000));
#232=VECTOR('',#231,10.6000);
#233=LINE('',#230,#232);
#234=EDGE_CURVE('',#181,#189,#233,.T.);
#235=ORIENTED_EDGE('',*,*,#234,.T.);
#236=CARTESIAN_POINT('',(16.4000,-0.3000,0.8000));
#237=DIRECTION('',(0.0000,-1.0000,0.0000));
#238=VECTOR('',#237,12.6000);
#239=LINE('',#236,#238);
#240=EDGE_CURVE('',#189,#185,#239,.T.);
#241=ORIENTED_EDGE('',*,*,#240,.T.);
#242=CARTESIAN_POINT('',(16.4000,-12.9000,0.8000));
#243=DIRECTION('',(-1.0000,0.0000,0.0000));
#244=VECTOR('',#243,10.6000);
#245=LINE('',#242,#244);
#246=EDGE_CURVE('',#185,#177,#245,.T.);
#247=ORIENTED_EDGE('',*,*,#246,.T.);
#248=EDGE_LOOP('',(#229,#235,#241,#247));
#249=FACE_OUTER_BOUND('',#248,.T.);
#250=CARTESIAN_POINT('',(5.8000,-12.9000,0.8000));
#251=DIRECTION('',(0.0000,0.0000,-1.0000));
#252=DIRECTION('',(1.0000,0.0000,0.0000));
#253=AXIS2_PLACEMENT_3D('',#250,#251,#252);
#254=PLANE('',#253);
#255=ADVANCED_FACE('',(#249),#254,.T.);
#256=ORIENTED_EDGE('',*,*,#240,.F.);
#257=CARTESIAN_POINT('',(16.4000,-0.3000,0.8000));
#258=DIRECTION('',(0.0000,0.0000,1.0000));
#259=VECTOR('',#258,1.6000);
#260=LINE('',#257,#259);
#261=EDGE_CURVE('',#189,#191,#260,.T.);
#262=ORIENTED_EDGE('',*,*,#261,.T.);
#263=ORIENTED_EDGE('',*,*,#202,.F.);
#264=CARTESIAN_POINT('',(16.4000,-12.9000,2.4000));
#265=DIRECTION('',(0.0000,0.0000,-1.0000));
#266=VECTOR('',#265,1.6000);
#267=LINE('',#264,#266);
#268=EDGE_CURVE('',#187,#185,#267,.T.);
#269=ORIENTED_EDGE('',*,*,#268,.T.);
#270=EDGE_LOOP('',(#256,#262,#263,#269));
#271=FACE_OUTER_BOUND('',#270,.T.);
#272=CARTESIAN_POINT('',(16.4000,-12.9000,0.8000));
#273=DIRECTION('',(1.0000,0.0000,0.0000));
#274=DIRECTION('',(0.0000,1.0000,0.0000));
#275=AXIS2_PLACEMENT_3D('',#272,#273,#274);
#276=PLANE('',#275);
#277=ADVANCED_FACE('',(#271),#276,.T.);
#278=CARTESIAN_POINT('',(5.8000,-12.9000,0.8000));
#279=DIRECTION('',(0.0000,0.0000,1.0000));
#280=VECTOR('',#279,1.6000);
#281=LINE('',#278,#280);
#282=EDGE_CURVE('',#177,#179,#281,.T.);
#283=ORIENTED_EDGE('',*,*,#282,.T.);
#284=ORIENTED_EDGE('',*,*,#214,.F.);
#285=CARTESIAN_POINT('',(5.8000,-0.3000,2.4000));
#286=DIRECTION('',(0.0000,0.0000,-1.0000));
#287=VECTOR('',#286,1.6000);
#288=LINE('',#285,#287);
#289=EDGE_CURVE('',#183,#181,#288,.T.);
#290=ORIENTED_EDGE('',*,*,#289,.T.);
#291=ORIENTED_EDGE('',*,*,#228,.F.);
#292=EDGE_LOOP('',(#283,#284,#290,#291));
#293=FACE_OUTER_BOUND('',#292,.T.);
#294=CARTESIAN_POINT('',(5.8000,-12.9000,0.8000));
#295=DIRECTION('',(-1.0000,0.0000,0.0000));
#296=DIRECTION('',(0.0000,1.0000,0.0000));
#297=AXIS2_PLACEMENT_3D('',#294,#295,#296);
#298=PLANE('',#297);
#299=ADVANCED_FACE('',(#293),#298,.T.);
#300=ORIENTED_EDGE('',*,*,#289,.F.);
#301=ORIENTED_EDGE('',*,*,#208,.F.);
#302=ORIENTED_EDGE('',*,*,#261,.F.);
#303=ORIENTED_EDGE('',*,*,#234,.F.);
#304=EDGE_LOOP('',(#300,#301,#302,#303));
#305=FACE_OUTER_BOUND('',#304,.T.);
#306=CARTESIAN_POINT('',(5.8000,-0.3000,0.8000));
#307=DIRECTION('',(0.0000,1.0000,0.0000));
#308=DIRECTION('',(1.0000,0.0000,0.0000));
#309=AXIS2_PLACEMENT_3D('',#306,#307,#308);
#310=PLANE('',#309);
#311=ADVANCED_FACE('',(#305),#310,.T.);
#312=ORIENTED_EDGE('',*,*,#246,.F.);
#313=ORIENTED_EDGE('',*,*,#268,.F.);
#314=ORIENTED_EDGE('',*,*,#196,.F.);
#315=ORIENTED_EDGE('',*,*,#282,.F.);
#316=EDGE_LOOP('',(#312,#313,#314,#315));
#317=FACE_OUTER_BOUND('',#316,.T.);
#318=CARTESIAN_POINT('',(5.8000,-12.9000,0.8000));
#319=DIRECTION('',(0.0000,-1.0000,0.0000));
#320=DIRECTION('',(1.0000,0.0000,0.0000));
#321=AXIS2_PLACEMENT_3D('',#318,#319,#320);
#322=PLANE('',#321);
#323=ADVANCED_FACE('',(#317),#322,.T.);
#324=CLOSED_SHELL('',(#223,#255,#277,#299,#311,#323));
#325=MANIFOLD_SOLID_BREP('',#324);
#326=COLOUR_RGB('',0.780,0.780,0.800);
#327=FILL_AREA_STYLE_COLOUR('',#326);
#328=FILL_AREA_STYLE('',(#327));
#329=SURFACE_STYLE_FILL_AREA(#328);
#330=SURFACE_SIDE_STYLE('',(#329));
#331=SURFACE_STYLE_USAGE(.BOTH.,#330);
#332=PRESENTATION_STYLE_ASSIGNMENT((#331));
#333=STYLED_ITEM('',(#332),#325);
#334=CARTESIAN_POINT('',(15.3000,-12.0000,2.4000));
#335=VERTEX_POINT('',#334);
#336=CARTESIAN_POINT('',(15.3000,-12.0000,2.4100));
#337=VERTEX_POINT('',#336);
#338=CARTESIAN_POINT('',(15.3000,-11.6000,2.4000));
#339=VERTEX_POINT('',#338);
#340=CARTESIAN_POINT('',(15.3000,-11.6000,2.4100));
#341=VERTEX_POINT('',#340);
#342=CARTESIAN_POINT('',(15.7000,-12.0000,2.4000));
#343=VERTEX_POINT('',#342);
#344=CARTESIAN_POINT('',(15.7000,-12.0000,2.4100));
#345=VERTEX_POINT('',#344);
#346=CARTESIAN_POINT('',(15.7000,-11.6000,2.4000));
#347=VERTEX_POINT('',#346);
#348=CARTESIAN_POINT('',(15.7000,-11.6000,2.4100));
#349=VERTEX_POINT('',#348);
#350=CARTESIAN_POINT('',(15.3000,-12.0000,2.4100));
#351=DIRECTION('',(1.0000,0.0000,0.0000));
#352=VECTOR('',#351,0.4000);
#353=LINE('',#350,#352);
#354=EDGE_CURVE('',#337,#345,#353,.T.);
#355=ORIENTED_EDGE('',*,*,#354,.T.);
#356=CARTESIAN_POINT('',(15.7000,-12.0000,2.4100));
#357=DIRECTION('',(0.0000,1.0000,0.0000));
#358=VECTOR('',#357,0.4000);
#359=LINE('',#356,#358);
#360=EDGE_CURVE('',#345,#349,#359,.T.);
#361=ORIENTED_EDGE('',*,*,#360,.T.);
#362=CARTESIAN_POINT('',(15.7000,-11.6000,2.4100));
#363=DIRECTION('',(-1.0000,0.0000,0.0000));
#364=VECTOR('',#363,0.4000);
#365=LINE('',#362,#364);
#366=EDGE_CURVE('',#349,#341,#365,.T.);
#367=ORIENTED_EDGE('',*,*,#366,.T.);
#368=CARTESIAN_POINT('',(15.3000,-11.6000,2.4100));
#369=DIRECTION('',(0.0000,-1.0000,0.0000));
#370=VECTOR('',#369,0.4000);
#371=LINE('',#368,#370);
#372=EDGE_CURVE('',#341,#337,#371,.T.);
#373=ORIENTED_EDGE('',*,*,#372,.T.);
#374=EDGE_LOOP('',(#355,#361,#367,#373));
#375=FACE_OUTER_BOUND('',#374,.T.);
#376=CARTESIAN_POINT('',(15.3000,-12.0000,2.4100));
#377=DIRECTION('',(0.0000,0.0000,1.0000));
#378=DIRECTION('',(1.0000,0.0000,0.0000));
#379=AXIS2_PLACEMENT_3D('',#376,#377,#378);
#380=PLANE('',#379);
#381=ADVANCED_FACE('',(#375),#380,.T.);
#382=CARTESIAN_POINT('',(15.3000,-12.0000,2.4000));
#383=DIRECTION('',(0.0000,1.0000,0.0000));
#384=VECTOR('',#383,0.4000);
#385=LINE('',#382,#384);
#386=EDGE_CURVE('',#335,#339,#385,.T.);
#387=ORIENTED_EDGE('',*,*,#386,.T.);
#388=CARTESIAN_POINT('',(15.3000,-11.6000,2.4000));
#389=DIRECTION('',(1.0000,0.0000,0.0000));
#390=VECTOR('',#389,0.4000);
#391=LINE('',#388,#390);
#392=EDGE_CURVE('',#339,#347,#391,.T.);
#393=ORIENTED_EDGE('',*,*,#392,.T.);
#394=CARTESIAN_POINT('',(15.7000,-11.6000,2.4000));
#395=DIRECTION('',(0.0000,-1.0000,0.0000));
#396=VECTOR('',#395,0.4000);
#397=LINE('',#394,#396);
#398=EDGE_CURVE('',#347,#343,#397,.T.);
#399=ORIENTED_EDGE('',*,*,#398,.T.);
#400=CARTESIAN_POINT('',(15.7000,-12.0000,2.4000));
#401=DIRECTION('',(-1.0000,0.0000,0.0000));
#402=VECTOR('',#401,0.4000);
#403=LINE('',#400,#402);
#404=EDGE_CURVE('',#343,#335,#403,.T.);
#405=ORIENTED_EDGE('',*,*,#404,.T.);
#406=EDGE_LOOP('',(#387,#393,#399,#405));
#407=FACE_OUTER_BOUND('',#406,.T.);
#408=CARTESIAN_POINT('',(15.3000,-12.0000,2.4000));
#409=DIRECTION('',(0.0000,0.0000,-1.0000));
#410=DIRECTION('',(1.0000,0.0000,0.0000));
#411=AXIS2_PLACEMENT_3D('',#408,#409,#410);
#412=PLANE('',#411);
#413=ADVANCED_FACE('',(#407),#412,.T.);
#414=ORIENTED_EDGE('',*,*,#398,.F.);
#415=CARTESIAN_POINT('',(15.7000,-11.6000,2.4000));
#416=DIRECTION('',(0.0000,0.0000,1.0000));
#417=VECTOR('',#416,0.0100);
#418=LINE('',#415,#417);
#419=EDGE_CURVE('',#347,#349,#418,.T.);
#420=ORIENTED_EDGE('',*,*,#419,.T.);
#421=ORIENTED_EDGE('',*,*,#360,.F.);
#422=CARTESIAN_POINT('',(15.7000,-12.0000,2.4100));
#423=DIRECTION('',(0.0000,0.0000,-1.0000));
#424=VECTOR('',#423,0.0100);
#425=LINE('',#422,#424);
#426=EDGE_CURVE('',#345,#343,#425,.T.);
#427=ORIENTED_EDGE('',*,*,#426,.T.);
#428=EDGE_LOOP('',(#414,#420,#421,#427));
#429=FACE_OUTER_BOUND('',#428,.T.);
#430=CARTESIAN_POINT('',(15.7000,-12.0000,2.4000));
#431=DIRECTION('',(1.0000,0.0000,0.0000));
#432=DIRECTION('',(0.0000,1.0000,0.0000));
#433=AXIS2_PLACEMENT_3D('',#430,#431,#432);
#434=PLANE('',#433);
#435=ADVANCED_FACE('',(#429),#434,.T.);
#436=CARTESIAN_POINT('',(15.3000,-12.0000,2.4000));
#437=DIRECTION('',(0.0000,0.0000,1.0000));
#438=VECTOR('',#437,0.0100);
#439=LINE('',#436,#438);
#440=EDGE_CURVE('',#335,#337,#439,.T.);
#441=ORIENTED_EDGE('',*,*,#440,.T.);
#442=ORIENTED_EDGE('',*,*,#372,.F.);
#443=CARTESIAN_POINT('',(15.3000,-11.6000,2.4100));
#444=DIRECTION('',(0.0000,0.0000,-1.0000));
#445=VECTOR('',#444,0.0100);
#446=LINE('',#443,#445);
#447=EDGE_CURVE('',#341,#339,#446,.T.);
#448=ORIENTED_EDGE('',*,*,#447,.T.);
#449=ORIENTED_EDGE('',*,*,#386,.F.);
#450=EDGE_LOOP('',(#441,#442,#448,#449));
#451=FACE_OUTER_BOUND('',#450,.T.);
#452=CARTESIAN_POINT('',(15.3000,-12.0000,2.4000));
#453=DIRECTION('',(-1.0000,0.0000,0.0000));
#454=DIRECTION('',(0.0000,1.0000,0.0000));
#455=AXIS2_PLACEMENT_3D('',#452,#453,#454);
#456=PLANE('',#455);
#457=ADVANCED_FACE('',(#451),#456,.T.);
#458=ORIENTED_EDGE('',*,*,#447,.F.);
#459=ORIENTED_EDGE('',*,*,#366,.F.);
#460=ORIENTED_EDGE('',*,*,#419,.F.);
#461=ORIENTED_EDGE('',*,*,#392,.F.);
#462=EDGE_LOOP('',(#458,#459,#460,#461));
#463=FACE_OUTER_BOUND('',#462,.T.);
#464=CARTESIAN_POINT('',(15.3000,-11.6000,2.4000));
#465=DIRECTION('',(0.0000,1.0000,0.0000));
#466=DIRECTION('',(1.0000,0.0000,0.0000));
#467=AXIS2_PLACEMENT_3D('',#464,#465,#466);
#468=PLANE('',#467);
#469=ADVANCED_FACE('',(#463),#468,.T.);
#470=ORIENTED_EDGE('',*,*,#404,.F.);
#471=ORIENTED_EDGE('',*,*,#426,.F.);
#472=ORIENTED_EDGE('',*,*,#354,.F.);
#473=ORIENTED_EDGE('',*,*,#440,.F.);
#474=EDGE_LOOP('',(#470,#471,#472,#473));
#475=FACE_OUTER_BOUND('',#474,.T.);
#476=CARTESIAN_POINT('',(15.3000,-12.0000,2.4000));
#477=DIRECTION('',(0.0000,-1.0000,0.0000));
#478=DIRECTION('',(1.0000,0.0000,0.0000));
#479=AXIS2_PLACEMENT_3D('',#476,#477,#478);
#480=PLANE('',#479);
#481=ADVANCED_FACE('',(#475),#480,.T.);
#482=CLOSED_SHELL('',(#381,#413,#435,#457,#469,#481));
#483=MANIFOLD_SOLID_BREP('',#482);
#484=COLOUR_RGB('',0.200,0.200,0.220);
#485=FILL_AREA_STYLE_COLOUR('',#484);
#486=FILL_AREA_STYLE('',(#485));
#487=SURFACE_STYLE_FILL_AREA(#486);
#488=SURFACE_SIDE_STYLE('',(#487));
#489=SURFACE_STYLE_USAGE(.BOTH.,#488);
#490=PRESENTATION_STYLE_ASSIGNMENT((#489));
#491=STYLED_ITEM('',(#490),#483);
#492=ADVANCED_BREP_SHAPE_REPRESENTATION('',(#17,#167,#325,#483),#13);
#493=SHAPE_DEFINITION_REPRESENTATION(#8,#492);
#494=MECHANICAL_DESIGN_GEOMETRIC_PRESENTATION_REPRESENTATION('',(#175,#333,#491),#13);
ENDSEC;
END-ISO-10303-21;
