ISO-10303-21;
HEADER;
FILE_DESCRIPTION(('growcube generated model'),'2;1');
FILE_NAME('Inductor_4.5x4.5.step','2026-10-02T00:00:00',(''),(''),'gen_models.py','','');
FILE_SCHEMA(('AUTOMOTIVE_DESIGN { 1 0 10303 214 1 1 1 1 }'));
ENDSEC;
DATA;
#1=APPLICATION_CONTEXT('automotive design');
#2=APPLICATION_PROTOCOL_DEFINITION('international standard','automotive_design',2000,#1);
#3=PRODUCT_CONTEXT('',#1,'mechanical');
#4=PRODUCT('Inductor_4.5x4.5','Inductor_4.5x4.5','',(#3));
#5=PRODUCT_DEFINITION_FORMATION('','',#4);
#6=PRODUCT_DEFINITION_CONTEXT('part definition',#1,'design');
#7=PRODUCT_DEFINITION('design','',#5,#6);
#8=PRODUCT_DEFINITION_SHAPE('','',#7);
#9=(LENGTH_UNIT()NAMED_UNIT(*)SI_UNIT(.MILLI.,.METRE.));
#10=(NAMED_UNIT(*)PLANE_ANGLE_UNIT()SI_UNIT($,.RADIAN.));
#11=(NAMED_UNIT(*)SI_UNIT($,.STERADIAN.)SOLID_ANGLE_UNIT());
#12=UNCERTAINTY_MEASURE_WITH_UNIT(LENGTH_MEASURE(1.E-05),#9,'distance_accuracy_value','');
#13=(GEOMETRIC_REPRESENTATION_CONTEXT(3)GLOBAL_UNCERTAINTY_ASSIGNED_CONTEXT((#12))GLOBAL_UNIT_ASSIGNED_CONTEXT((#9,#10,#11))REPRESENTATION_CONTEXT('',''));
#14=CARTESIAN_POINT('',(0.0000,0.0000,0.0000));
#15=DIRECTION('',(0.0000,0.0000,1.0000));
#16=DIRECTION('',(1.0000,0.0000,0.0000));
#17=AXIS2_PLACEMENT_3D('',#14,#15,#16);
#18=CARTESIAN_POINT('',(-2.2500,-2.2500,0.0000));
#19=VERTEX_POINT('',#18);
#20=CARTESIAN_POINT('',(-2.2500,-2.2500,2.0000));
#21=VERTEX_POINT('',#20);
#22=CARTESIAN_POINT('',(-2.2500,2.2500,0.0000));
#23=VERTEX_POINT('',#22);
#24=CARTESIAN_POINT('',(-2.2500,2.2500,2.0000));
#25=VERTEX_POINT('',#24);
#26=CARTESIAN_POINT('',(2.2500,-2.2500,0.0000));
#27=VERTEX_POINT('',#26);
#28=CARTESIAN_POINT('',(2.2500,-2.2500,2.0000));
#29=VERTEX_POINT('',#28);
#30=CARTESIAN_POINT('',(2.2500,2.2500,0.0000));
#31=VERTEX_POINT('',#30);
#32=CARTESIAN_POINT('',(2.2500,2.2500,2.0000));
#33=VERTEX_POINT('',#32);
#34=CARTESIAN_POINT('',(-2.2500,-2.2500,2.0000));
#35=DIRECTION('',(1.0000,0.0000,0.0000));
#36=VECTOR('',#35,4.5000);
#37=LINE('',#34,#36);
#38=EDGE_CURVE('',#21,#29,#37,.T.);
#39=ORIENTED_EDGE('',*,*,#38,.T.);
#40=CARTESIAN_POINT('',(2.2500,-2.2500,2.0000));
#41=DIRECTION('',(0.0000,1.0000,0.0000));
#42=VECTOR('',#41,4.5000);
#43=LINE('',#40,#42);
#44=EDGE_CURVE('',#29,#33,#43,.T.);
#45=ORIENTED_EDGE('',*,*,#44,.T.);
#46=CARTESIAN_POINT('',(2.2500,2.2500,2.0000));
#47=DIRECTION('',(-1.0000,0.0000,0.0000));
#48=VECTOR('',#47,4.5000);
#49=LINE('',#46,#48);
#50=EDGE_CURVE('',#33,#25,#49,.T.);
#51=ORIENTED_EDGE('',*,*,#50,.T.);
#52=CARTESIAN_POINT('',(-2.2500,2.2500,2.0000));
#53=DIRECTION('',(0.0000,-1.0000,0.0000));
#54=VECTOR('',#53,4.5000);
#55=LINE('',#52,#54);
#56=EDGE_CURVE('',#25,#21,#55,.T.);
#57=ORIENTED_EDGE('',*,*,#56,.T.);
#58=EDGE_LOOP('',(#39,#45,#51,#57));
#59=FACE_OUTER_BOUND('',#58,.T.);
#60=CARTESIAN_POINT('',(-2.2500,-2.2500,2.0000));
#61=DIRECTION('',(0.0000,0.0000,1.0000));
#62=DIRECTION('',(1.0000,0.0000,0.0000));
#63=AXIS2_PLACEMENT_3D('',#60,#61,#62);
#64=PLANE('',#63);
#65=ADVANCED_FACE('',(#59),#64,.T.);
#66=CARTESIAN_POINT('',(-2.2500,-2.2500,0.0000));
#67=DIRECTION('',(0.0000,1.0000,0.0000));
#68=VECTOR('',#67,4.5000);
#69=LINE('',#66,#68);
#70=EDGE_CURVE('',#19,#23,#69,.T.);
#71=ORIENTED_EDGE('',*,*,#70,.T.);
#72=CARTESIAN_POINT('',(-2.2500,2.2500,0.0000));
#73=DIRECTION('',(1.0000,0.0000,0.0000));
#74=VECTOR('',#73,4.5000);
#75=LINE('',#72,#74);
#76=EDGE_CURVE('',#23,#31,#75,.T.);
#77=ORIENTED_EDGE('',*,*,#76,.T.);
#78=CARTESIAN_POINT('',(2.2500,2.2500,0.0000));
#79=DIRECTION('',(0.0000,-1.0000,0.0000));
#80=VECTOR('',#79,4.5000);
#81=LINE('',#78,#80);
#82=EDGE_CURVE('',#31,#27,#81,.T.);
#83=ORIENTED_EDGE('',*,*,#82,.T.);
#84=CARTESIAN_POINT('',(2.2500,-2.2500,0.0000));
#85=DIRECTION('',(-1.0000,0.0000,0.0000));
#86=VECTOR('',#85,4.5000);
#87=LINE('',#84,#86);
#88=EDGE_CURVE('',#27,#19,#87,.T.);
#89=ORIENTED_EDGE('',*,*,#88,.T.);
#90=EDGE_LOOP('',(#71,#77,#83,#89));
#91=FACE_OUTER_BOUND('',#90,.T.);
#92=CARTESIAN_POINT('',(-2.2500,-2.2500,0.0000));
#93=DIRECTION('',(0.0000,0.0000,-1.0000));
#94=DIRECTION('',(1.0000,0.0000,0.0000));
#95=AXIS2_PLACEMENT_3D('',#92,#93,#94);
#96=PLANE('',#95);
#97=ADVANCED_FACE('',(#91),#96,.T.);
#98=ORIENTED_EDGE('',*,*,#82,.F.);
#99=CARTESIAN_POINT('',(2.2500,2.2500,0.0000));
#100=DIRECTION('',(0.0000,0.0000,1.0000));
#101=VECTOR('',#100,2.0000);
#102=LINE('',#99,#101);
#103=EDGE_CURVE('',#31,#33,#102,.T.);
#104=ORIENTED_EDGE('',*,*,#103,.T.);
#105=ORIENTED_EDGE('',*,*,#44,.F.);
#106=CARTESIAN_POINT('',(2.2500,-2.2500,2.0000));
#107=DIRECTION('',(0.0000,0.0000,-1.0000));
#108=VECTOR('',#107,2.0000);
#109=LINE('',#106,#108);
#110=EDGE_CURVE('',#29,#27,#109,.T.);
#111=ORIENTED_EDGE('',*,*,#110,.T.);
#112=EDGE_LOOP('',(#98,#104,#105,#111));
#113=FACE_OUTER_BOUND('',#112,.T.);
#114=CARTESIAN_POINT('',(2.2500,-2.2500,0.0000));
#115=DIRECTION('',(1.0000,0.0000,0.0000));
#116=DIRECTION('',(0.0000,1.0000,0.0000));
#117=AXIS2_PLACEMENT_3D('',#114,#115,#116);
#118=PLANE('',#117);
#119=ADVANCED_FACE('',(#113),#118,.T.);
#120=CARTESIAN_POINT('',(-2.2500,-2.2500,0.0000));
#121=DIRECTION('',(0.0000,0.0000,1.0000));
#122=VECTOR('',#121,2.0000);
#123=LINE('',#120,#122);
#124=EDGE_CURVE('',#19,#21,#123,.T.);
#125=ORIENTED_EDGE('',*,*,#124,.T.);
#126=ORIENTED_EDGE('',*,*,#56,.F.);
#127=CARTESIAN_POINT('',(-2.2500,2.2500,2.0000));
#128=DIRECTION('',(0.0000,0.0000,-1.0000));
#129=VECTOR('',#128,2.0000);
#130=LINE('',#127,#129);
#131=EDGE_CURVE('',#25,#23,#130,.T.);
#132=ORIENTED_EDGE('',*,*,#131,.T.);
#133=ORIENTED_EDGE('',*,*,#70,.F.);
#134=EDGE_LOOP('',(#125,#126,#132,#133));
#135=FACE_OUTER_BOUND('',#134,.T.);
#136=CARTESIAN_POINT('',(-2.2500,-2.2500,0.0000));
#137=DIRECTION('',(-1.0000,0.0000,0.0000));
#138=DIRECTION('',(0.0000,1.0000,0.0000));
#139=AXIS2_PLACEMENT_3D('',#136,#137,#138);
#140=PLANE('',#139);
#141=ADVANCED_FACE('',(#135),#140,.T.);
#142=ORIENTED_EDGE('',*,*,#131,.F.);
#143=ORIENTED_EDGE('',*,*,#50,.F.);
#144=ORIENTED_EDGE('',*,*,#103,.F.);
#145=ORIENTED_EDGE('',*,*,#76,.F.);
#146=EDGE_LOOP('',(#142,#143,#144,#145));
#147=FACE_OUTER_BOUND('',#146,.T.);
#148=CARTESIAN_POINT('',(-2.2500,2.2500,0.0000));
#149=DIRECTION('',(0.0000,1.0000,0.0000));
#150=DIRECTION('',(1.0000,0.0000,0.0000));
#151=AXIS2_PLACEMENT_3D('',#148,#149,#150);
#152=PLANE('',#151);
#153=ADVANCED_FACE('',(#147),#152,.T.);
#154=ORIENTED_EDGE('',*,*,#88,.F.);
#155=ORIENTED_EDGE('',*,*,#110,.F.);
#156=ORIENTED_EDGE('',*,*,#38,.F.);
#157=ORIENTED_EDGE('',*,*,#124,.F.);
#158=EDGE_LOOP('',(#154,#155,#156,#157));
#159=FACE_OUTER_BOUND('',#158,.T.);
#160=CARTESIAN_POINT('',(-2.2500,-2.2500,0.0000));
#161=DIRECTION('',(0.0000,-1.0000,0.0000));
#162=DIRECTION('',(1.0000,0.0000,0.0000));
#163=AXIS2_PLACEMENT_3D('',#160,#161,#162);
#164=PLANE('',#163);
#165=ADVANCED_FACE('',(#159),#164,.T.);
#166=CLOSED_SHELL('',(#65,#97,#119,#141,#153,#165));
#167=MANIFOLD_SOLID_BREP('',#166);
#168=COLOUR_RGB('',0.160,0.160,0.170);
#169=FILL_AREA_STYLE_COLOUR('',#168);
#170=FILL_AREA_STYLE('',(#169));
#171=SURFACE_STYLE_FILL_AREA(#170);
#172=SURFACE_SIDE_STYLE('',(#171));
#173=SURFACE_STYLE_USAGE(.BOTH.,#172);
#174=PRESENTATION_STYLE_ASSIGNMENT((#173));
#175=STYLED_ITEM('',(#174),#167);
#176=ADVANCED_BREP_SHAPE_REPRESENTATION('',(#17,#167),#13);
#177=SHAPE_DEFINITION_REPRESENTATION(#8,#176);
#178=MECHANICAL_DESIGN_GEOMETRIC_PRESENTATION_REPRESENTATION('',(#175),#13);
ENDSEC;
END-ISO-10303-21;
