ISO-10303-21;
HEADER;
FILE_DESCRIPTION(('growcube generated model'),'2;1');
FILE_NAME('Jack_3.5mm_EMG.step','2026-10-02T00:00:00',(''),(''),'gen_models.py','','');
FILE_SCHEMA(('AUTOMOTIVE_DESIGN { 1 0 10303 214 1 1 1 1 }'));
ENDSEC;
DATA;
#1=APPLICATION_CONTEXT('automotive design');
#2=APPLICATION_PROTOCOL_DEFINITION('international standard','automotive_design',2000,#1);
#3=PRODUCT_CONTEXT('',#1,'mechanical');
#4=PRODUCT('Jack_3.5mm_EMG','Jack_3.5mm_EMG','',(#3));
#5=PRODUCT_DEFINITION_FORMATION('','',#4);
#6=PRODUCT_DEFINITION_CONTEXT('part definition',#1,'design');
#7=PRODUCT_DEFINITION('design','',#5,#6);
#8=PRODUCT_DEFINITION_SHAPE('','',#7);
#9=(LENGTH_UNIT()NAMED_UNIT(*)SI_UNIT(.MILLI.,.METRE.));
#10=(NAMED_UNIT(*)PLANE_ANGLE_UNIT()SI_UNIT($,.RADIAN.));
#11=(NAMED_UNIT(*)SI_UNIT($,.STERADIAN.)SOLID_ANGLE_UNIT());
#12=UNCERTAINTY_MEASURE_WITH_UNIT(LENGTH_MEASURE(1.E-05),#9,'distance_accuracy_value','');
#13=(GEOMETRIC_REPRESENTATION_CONTEXT(3)GLOBAL_UNCERTAINTY_ASSIGNED_CONTEXT((#12))GLOBAL_UNIT_ASSIGNED_CONTEXT((#9,#10,#11))REPRESENTATION_CONTEXT('',''));
#14=CARTESIAN_POINT('',(0.0000,0.0000,0.0000));
#15=DIRECTION('',(0.0000,0.0000,1.0000));
#16=DIRECTION('',(1.0000,0.0000,0.0000));
#17=AXIS2_PLACEMENT_3D('',#14,#15,#16);
#18=CARTESIAN_POINT('',(0.0000,-3.2500,0.0000));
#19=VERTEX_POINT('',#18);
#20=CARTESIAN_POINT('',(0.0000,-3.2500,5.2000));
#21=VERTEX_POINT('',#20);
#22=CARTESIAN_POINT('',(0.0000,3.2500,0.0000));
#23=VERTEX_POINT('',#22);
#24=CARTESIAN_POINT('',(0.0000,3.2500,5.2000));
#25=VERTEX_POINT('',#24);
#26=CARTESIAN_POINT('',(11.3000,-3.2500,0.0000));
#27=VERTEX_POINT('',#26);
#28=CARTESIAN_POINT('',(11.3000,-3.2500,5.2000));
#29=VERTEX_POINT('',#28);
#30=CARTESIAN_POINT('',(11.3000,3.2500,0.0000));
#31=VERTEX_POINT('',#30);
#32=CARTESIAN_POINT('',(11.3000,3.2500,5.2000));
#33=VERTEX_POINT('',#32);
#34=CARTESIAN_POINT('',(0.0000,-3.2500,5.2000));
#35=DIRECTION('',(1.0000,0.0000,0.0000));
#36=VECTOR('',#35,11.3000);
#37=LINE('',#34,#36);
#38=EDGE_CURVE('',#21,#29,#37,.T.);
#39=ORIENTED_EDGE('',*,*,#38,.T.);
#40=CARTESIAN_POINT('',(11.3000,-3.2500,5.2000));
#41=DIRECTION('',(0.0000,1.0000,0.0000));
#42=VECTOR('',#41,6.5000);
#43=LINE('',#40,#42);
#44=EDGE_CURVE('',#29,#33,#43,.T.);
#45=ORIENTED_EDGE('',*,*,#44,.T.);
#46=CARTESIAN_POINT('',(11.3000,3.2500,5.2000));
#47=DIRECTION('',(-1.0000,0.0000,0.0000));
#48=VECTOR('',#47,11.3000);
#49=LINE('',#46,#48);
#50=EDGE_CURVE('',#33,#25,#49,.T.);
#51=ORIENTED_EDGE('',*,*,#50,.T.);
#52=CARTESIAN_POINT('',(0.0000,3.2500,5.2000));
#53=DIRECTION('',(0.0000,-1.0000,0.0000));
#54=VECTOR('',#53,6.5000);
#55=LINE('',#52,#54);
#56=EDGE_CURVE('',#25,#21,#55,.T.);
#57=ORIENTED_EDGE('',*,*,#56,.T.);
#58=EDGE_LOOP('',(#39,#45,#51,#57));
#59=FACE_OUTER_BOUND('',#58,.T.);
#60=CARTESIAN_POINT('',(0.0000,-3.2500,5.2000));
#61=DIRECTION('',(0.0000,0.0000,1.0000));
#62=DIRECTION('',(1.0000,0.0000,0.0000));
#63=AXIS2_PLACEMENT_3D('',#60,#61,#62);
#64=PLANE('',#63);
#65=ADVANCED_FACE('',(#59),#64,.T.);
#66=CARTESIAN_POINT('',(0.0000,-3.2500,0.0000));
#67=DIRECTION('',(0.0000,1.0000,0.0000));
#68=VECTOR('',#67,6.5000);
#69=LINE('',#66,#68);
#70=EDGE_CURVE('',#19,#23,#69,.T.);
#71=ORIENTED_EDGE('',*,*,#70,.T.);
#72=CARTESIAN_POINT('',(0.0000,3.2500,0.0000));
#73=DIRECTION('',(1.0000,0.0000,0.0000));
#74=VECTOR('',#73,11.3000);
#75=LINE('',#72,#74);
#76=EDGE_CURVE('',#23,#31,#75,.T.);
#77=ORIENTED_EDGE('',*,*,#76,.T.);
#78=CARTESIAN_POINT('',(11.3000,3.2500,0.0000));
#79=DIRECTION('',(0.0000,-1.0000,0.0000));
#80=VECTOR('',#79,6.5000);
#81=LINE('',#78,#80);
#82=EDGE_CURVE('',#31,#27,#81,.T.);
#83=ORIENTED_EDGE('',*,*,#82,.T.);
#84=CARTESIAN_POINT('',(11.3000,-3.2500,0.0000));
#85=DIRECTION('',(-1.0000,0.0000,0.0000));
#86=VECTOR('',#85,11.3000);
#87=LINE('',#84,#86);
#88=EDGE_CURVE('',#27,#19,#87,.T.);
#89=ORIENTED_EDGE('',*,*,#88,.T.);
#90=EDGE_LOOP('',(#71,#77,#83,#89));
#91=FACE_OUTER_BOUND('',#90,.T.);
#92=CARTESIAN_POINT('',(0.0000,-3.2500,0.0000));
#93=DIRECTION('',(0.0000,0.0000,-1.0000));
#94=DIRECTION('',(1.0000,0.0000,0.0000));
#95=AXIS2_PLACEMENT_3D('',#92,#93,#94);
#96=PLANE('',#95);
#97=ADVANCED_FACE('',(#91),#96,.T.);
#98=ORIENTED_EDGE('',*,*,#82,.F.);
#99=CARTESIAN_POINT('',(11.3000,3.2500,0.0000));
#100=DIRECTION('',(0.0000,0.0000,1.0000));
#101=VECTOR('',#100,5.2000);
#102=LINE('',#99,#101);
#103=EDGE_CURVE('',#31,#33,#102,.T.);
#104=ORIENTED_EDGE('',*,*,#103,.T.);
#105=ORIENTED_EDGE('',*,*,#44,.F.);
#106=CARTESIAN_POINT('',(11.3000,-3.2500,5.2000));
#107=DIRECTION('',(0.0000,0.0000,-1.0000));
#108=VECTOR('',#107,5.2000);
#109=LINE('',#106,#108);
#110=EDGE_CURVE('',#29,#27,#109,.T.);
#111=ORIENTED_EDGE('',*,*,#110,.T.);
#112=EDGE_LOOP('',(#98,#104,#105,#111));
#113=FACE_OUTER_BOUND('',#112,.T.);
#114=CARTESIAN_POINT('',(11.3000,-3.2500,0.0000));
#115=DIRECTION('',(1.0000,0.0000,0.0000));
#116=DIRECTION('',(0.0000,1.0000,0.0000));
#117=AXIS2_PLACEMENT_3D('',#114,#115,#116);
#118=PLANE('',#117);
#119=ADVANCED_FACE('',(#113),#118,.T.);
#120=CARTESIAN_POINT('',(0.0000,-3.2500,0.0000));
#121=DIRECTION('',(0.0000,0.0000,1.0000));
#122=VECTOR('',#121,5.2000);
#123=LINE('',#120,#122);
#124=EDGE_CURVE('',#19,#21,#123,.T.);
#125=ORIENTED_EDGE('',*,*,#124,.T.);
#126=ORIENTED_EDGE('',*,*,#56,.F.);
#127=CARTESIAN_POINT('',(0.0000,3.2500,5.2000));
#128=DIRECTION('',(0.0000,0.0000,-1.0000));
#129=VECTOR('',#128,5.2000);
#130=LINE('',#127,#129);
#131=EDGE_CURVE('',#25,#23,#130,.T.);
#132=ORIENTED_EDGE('',*,*,#131,.T.);
#133=ORIENTED_EDGE('',*,*,#70,.F.);
#134=EDGE_LOOP('',(#125,#126,#132,#133));
#135=FACE_OUTER_BOUND('',#134,.T.);
#136=CARTESIAN_POINT('',(0.0000,-3.2500,0.0000));
#137=DIRECTION('',(-1.0000,0.0000,0.0000));
#138=DIRECTION('',(0.0000,1.0000,0.0000));
#139=AXIS2_PLACEMENT_3D('',#136,#137,#138);
#140=PLANE('',#139);
#141=ADVANCED_FACE('',(#135),#140,.T.);
#142=ORIENTED_EDGE('',*,*,#131,.F.);
#143=ORIENTED_EDGE('',*,*,#50,.F.);
#144=ORIENTED_EDGE('',*,*,#103,.F.);
#145=ORIENTED_EDGE('',*,*,#76,.F.);
#146=EDGE_LOOP('',(#142,#143,#144,#145));
#147=FACE_OUTER_BOUND('',#146,.T.);
#148=CARTESIAN_POINT('',(0.0000,3.2500,0.0000));
#149=DIRECTION('',(0.0000,1.0000,0.0000));
#150=DIRECTION('',(1.0000,0.0000,0.0000));
#151=AXIS2_PLACEMENT_3D('',#148,#149,#150);
#152=PLANE('',#151);
#153=ADVANCED_FACE('',(#147),#152,.T.);
#154=ORIENTED_EDGE('',*,*,#88,.F.);
#155=ORIENTED_EDGE('',*,*,#110,.F.);
#156=ORIENTED_EDGE('',*,*,#38,.F.);
#157=ORIENTED_EDGE('',*,*,#124,.F.);
#158=EDGE_LOOP('',(#154,#155,#156,#157));
#159=FACE_OUTER_BOUND('',#158,.T.);
#160=CARTESIAN_POINT('',(0.0000,-3.2500,0.0000));
#161=DIRECTION('',(0.0000,-1.0000,0.0000));
#162=DIRECTION('',(1.0000,0.0000,0.0000));
#163=AXIS2_PLACEMENT_3D('',#160,#161,#162);
#164=PLANE('',#163);
#165=ADVANCED_FACE('',(#159),#164,.T.);
#166=CLOSED_SHELL('',(#65,#97,#119,#141,#153,#165));
#167=MANIFOLD_SOLID_BREP('',#166);
#168=COLOUR_RGB('',0.060,0.060,0.070);
#169=FILL_AREA_STYLE_COLOUR('',#168);
#170=FILL_AREA_STYLE('',(#169));
#171=SURFACE_STYLE_FILL_AREA(#170);
#172=SURFACE_SIDE_STYLE('',(#171));
#173=SURFACE_STYLE_USAGE(.BOTH.,#172);
#174=PRESENTATION_STYLE_ASSIGNMENT((#173));
#175=STYLED_ITEM('',(#174),#167);
#176=CARTESIAN_POINT('',(-2.4000,-2.5000,0.1000));
#177=VERTEX_POINT('',#176);
#178=CARTESIAN_POINT('',(-2.4000,-2.5000,5.1000));
#179=VERTEX_POINT('',#178);
#180=CARTESIAN_POINT('',(-2.4000,2.5000,0.1000));
#181=VERTEX_POINT('',#180);
#182=CARTESIAN_POINT('',(-2.4000,2.5000,5.1000));
#183=VERTEX_POINT('',#182);
#184=CARTESIAN_POINT('',(0.0000,-2.5000,0.1000));
#185=VERTEX_POINT('',#184);
#186=CARTESIAN_POINT('',(0.0000,-2.5000,5.1000));
#187=VERTEX_POINT('',#186);
#188=CARTESIAN_POINT('',(0.0000,2.5000,0.1000));
#189=VERTEX_POINT('',#188);
#190=CARTESIAN_POINT('',(0.0000,2.5000,5.1000));
#191=VERTEX_POINT('',#190);
#192=CARTESIAN_POINT('',(-2.4000,-2.5000,5.1000));
#193=DIRECTION('',(1.0000,0.0000,0.0000));
#194=VECTOR('',#193,2.4000);
#195=LINE('',#192,#194);
#196=EDGE_CURVE('',#179,#187,#195,.T.);
#197=ORIENTED_EDGE('',*,*,#196,.T.);
#198=CARTESIAN_POINT('',(0.0000,-2.5000,5.1000));
#199=DIRECTION('',(0.0000,1.0000,0.0000));
#200=VECTOR('',#199,5.0000);
#201=LINE('',#198,#200);
#202=EDGE_CURVE('',#187,#191,#201,.T.);
#203=ORIENTED_EDGE('',*,*,#202,.T.);
#204=CARTESIAN_POINT('',(0.0000,2.5000,5.1000));
#205=DIRECTION('',(-1.0000,0.0000,0.0000));
#206=VECTOR('',#205,2.4000);
#207=LINE('',#204,#206);
#208=EDGE_CURVE('',#191,#183,#207,.T.);
#209=ORIENTED_EDGE('',*,*,#208,.T.);
#210=CARTESIAN_POINT('',(-2.4000,2.5000,5.1000));
#211=DIRECTION('',(0.0000,-1.0000,0.0000));
#212=VECTOR('',#211,5.0000);
#213=LINE('',#210,#212);
#214=EDGE_CURVE('',#183,#179,#213,.T.);
#215=ORIENTED_EDGE('',*,*,#214,.T.);
#216=EDGE_LOOP('',(#197,#203,#209,#215));
#217=FACE_OUTER_BOUND('',#216,.T.);
#218=CARTESIAN_POINT('',(-2.4000,-2.5000,5.1000));
#219=DIRECTION('',(0.0000,0.0000,1.0000));
#220=DIRECTION('',(1.0000,0.0000,0.0000));
#221=AXIS2_PLACEMENT_3D('',#218,#219,#220);
#222=PLANE('',#221);
#223=ADVANCED_FACE('',(#217),#222,.T.);
#224=CARTESIAN_POINT('',(-2.4000,-2.5000,0.1000));
#225=DIRECTION('',(0.0000,1.0000,0.0000));
#226=VECTOR('',#225,5.0000);
#227=LINE('',#224,#226);
#228=EDGE_CURVE('',#177,#181,#227,.T.);
#229=ORIENTED_EDGE('',*,*,#228,.T.);
#230=CARTESIAN_POINT('',(-2.4000,2.5000,0.1000));
#231=DIRECTION('',(1.0000,0.0000,0.0000));
#232=VECTOR('',#231,2.4000);
#233=LINE('',#230,#232);
#234=EDGE_CURVE('',#181,#189,#233,.T.);
#235=ORIENTED_EDGE('',*,*,#234,.T.);
#236=CARTESIAN_POINT('',(0.0000,2.5000,0.1000));
#237=DIRECTION('',(0.0000,-1.0000,0.0000));
#238=VECTOR('',#237,5.0000);
#239=LINE('',#236,#238);
#240=EDGE_CURVE('',#189,#185,#239,.T.);
#241=ORIENTED_EDGE('',*,*,#240,.T.);
#242=CARTESIAN_POINT('',(0.0000,-2.5000,0.1000));
#243=DIRECTION('',(-1.0000,0.0000,0.0000));
#244=VECTOR('',#243,2.4000);
#245=LINE('',#242,#244);
#246=EDGE_CURVE('',#185,#177,#245,.T.);
#247=ORIENTED_EDGE('',*,*,#246,.T.);
#248=EDGE_LOOP('',(#229,#235,#241,#247));
#249=FACE_OUTER_BOUND('',#248,.T.);
#250=CARTESIAN_POINT('',(-2.4000,-2.5000,0.1000));
#251=DIRECTION('',(0.0000,0.0000,-1.0000));
#252=DIRECTION('',(1.0000,0.0000,0.0000));
#253=AXIS2_PLACEMENT_3D('',#250,#251,#252);
#254=PLANE('',#253);
#255=ADVANCED_FACE('',(#249),#254,.T.);
#256=ORIENTED_EDGE('',*,*,#240,.F.);
#257=CARTESIAN_POINT('',(0.0000,2.5000,0.1000));
#258=DIRECTION('',(0.0000,0.0000,1.0000));
#259=VECTOR('',#258,5.0000);
#260=LINE('',#257,#259);
#261=EDGE_CURVE('',#189,#191,#260,.T.);
#262=ORIENTED_EDGE('',*,*,#261,.T.);
#263=ORIENTED_EDGE('',*,*,#202,.F.);
#264=CARTESIAN_POINT('',(0.0000,-2.5000,5.1000));
#265=DIRECTION('',(0.0000,0.0000,-1.0000));
#266=VECTOR('',#265,5.0000);
#267=LINE('',#264,#266);
#268=EDGE_CURVE('',#187,#185,#267,.T.);
#269=ORIENTED_EDGE('',*,*,#268,.T.);
#270=EDGE_LOOP('',(#256,#262,#263,#269));
#271=FACE_OUTER_BOUND('',#270,.T.);
#272=CARTESIAN_POINT('',(0.0000,-2.5000,0.1000));
#273=DIRECTION('',(1.0000,0.0000,0.0000));
#274=DIRECTION('',(0.0000,1.0000,0.0000));
#275=AXIS2_PLACEMENT_3D('',#272,#273,#274);
#276=PLANE('',#275);
#277=ADVANCED_FACE('',(#271),#276,.T.);
#278=CARTESIAN_POINT('',(-2.4000,-2.5000,0.1000));
#279=DIRECTION('',(0.0000,0.0000,1.0000));
#280=VECTOR('',#279,5.0000);
#281=LINE('',#278,#280);
#282=EDGE_CURVE('',#177,#179,#281,.T.);
#283=ORIENTED_EDGE('',*,*,#282,.T.);
#284=ORIENTED_EDGE('',*,*,#214,.F.);
#285=CARTESIAN_POINT('',(-2.4000,2.5000,5.1000));
#286=DIRECTION('',(0.0000,0.0000,-1.0000));
#287=VECTOR('',#286,5.0000);
#288=LINE('',#285,#287);
#289=EDGE_CURVE('',#183,#181,#288,.T.);
#290=ORIENTED_EDGE('',*,*,#289,.T.);
#291=ORIENTED_EDGE('',*,*,#228,.F.);
#292=EDGE_LOOP('',(#283,#284,#290,#291));
#293=FACE_OUTER_BOUND('',#292,.T.);
#294=CARTESIAN_POINT('',(-2.4000,-2.5000,0.1000));
#295=DIRECTION('',(-1.0000,0.0000,0.0000));
#296=DIRECTION('',(0.0000,1.0000,0.0000));
#297=AXIS2_PLACEMENT_3D('',#294,#295,#296);
#298=PLANE('',#297);
#299=ADVANCED_FACE('',(#293),#298,.T.);
#300=ORIENTED_EDGE('',*,*,#289,.F.);
#301=ORIENTED_EDGE('',*,*,#208,.F.);
#302=ORIENTED_EDGE('',*,*,#261,.F.);
#303=ORIENTED_EDGE('',*,*,#234,.F.);
#304=EDGE_LOOP('',(#300,#301,#302,#303));
#305=FACE_OUTER_BOUND('',#304,.T.);
#306=CARTESIAN_POINT('',(-2.4000,2.5000,0.1000));
#307=DIRECTION('',(0.0000,1.0000,0.0000));
#308=DIRECTION('',(1.0000,0.0000,0.0000));
#309=AXIS2_PLACEMENT_3D('',#306,#307,#308);
#310=PLANE('',#309);
#311=ADVANCED_FACE('',(#305),#310,.T.);
#312=ORIENTED_EDGE('',*,*,#246,.F.);
#313=ORIENTED_EDGE('',*,*,#268,.F.);
#314=ORIENTED_EDGE('',*,*,#196,.F.);
#315=ORIENTED_EDGE('',*,*,#282,.F.);
#316=EDGE_LOOP('',(#312,#313,#314,#315));
#317=FACE_OUTER_BOUND('',#316,.T.);
#318=CARTESIAN_POINT('',(-2.4000,-2.5000,0.1000));
#319=DIRECTION('',(0.0000,-1.0000,0.0000));
#320=DIRECTION('',(1.0000,0.0000,0.0000));
#321=AXIS2_PLACEMENT_3D('',#318,#319,#320);
#322=PLANE('',#321);
#323=ADVANCED_FACE('',(#317),#322,.T.);
#324=CLOSED_SHELL('',(#223,#255,#277,#299,#311,#323));
#325=MANIFOLD_SOLID_BREP('',#324);
#326=COLOUR_RGB('',0.060,0.060,0.070);
#327=FILL_AREA_STYLE_COLOUR('',#326);
#328=FILL_AREA_STYLE('',(#327));
#329=SURFACE_STYLE_FILL_AREA(#328);
#330=SURFACE_SIDE_STYLE('',(#329));
#331=SURFACE_STYLE_USAGE(.BOTH.,#330);
#332=PRESENTATION_STYLE_ASSIGNMENT((#331));
#333=STYLED_ITEM('',(#332),#325);
#334=CARTESIAN_POINT('',(0.0000,-3.4000,0.0000));
#335=VERTEX_POINT('',#334);
#336=CARTESIAN_POINT('',(0.0000,-3.4000,5.4000));
#337=VERTEX_POINT('',#336);
#338=CARTESIAN_POINT('',(0.0000,3.4000,0.0000));
#339=VERTEX_POINT('',#338);
#340=CARTESIAN_POINT('',(0.0000,3.4000,5.4000));
#341=VERTEX_POINT('',#340);
#342=CARTESIAN_POINT('',(2.8000,-3.4000,0.0000));
#343=VERTEX_POINT('',#342);
#344=CARTESIAN_POINT('',(2.8000,-3.4000,5.4000));
#345=VERTEX_POINT('',#344);
#346=CARTESIAN_POINT('',(2.8000,3.4000,0.0000));
#347=VERTEX_POINT('',#346);
#348=CARTESIAN_POINT('',(2.8000,3.4000,5.4000));
#349=VERTEX_POINT('',#348);
#350=CARTESIAN_POINT('',(0.0000,-3.4000,5.4000));
#351=DIRECTION('',(1.0000,0.0000,0.0000));
#352=VECTOR('',#351,2.8000);
#353=LINE('',#350,#352);
#354=EDGE_CURVE('',#337,#345,#353,.T.);
#355=ORIENTED_EDGE('',*,*,#354,.T.);
#356=CARTESIAN_POINT('',(2.8000,-3.4000,5.4000));
#357=DIRECTION('',(0.0000,1.0000,0.0000));
#358=VECTOR('',#357,6.8000);
#359=LINE('',#356,#358);
#360=EDGE_CURVE('',#345,#349,#359,.T.);
#361=ORIENTED_EDGE('',*,*,#360,.T.);
#362=CARTESIAN_POINT('',(2.8000,3.4000,5.4000));
#363=DIRECTION('',(-1.0000,0.0000,0.0000));
#364=VECTOR('',#363,2.8000);
#365=LINE('',#362,#364);
#366=EDGE_CURVE('',#349,#341,#365,.T.);
#367=ORIENTED_EDGE('',*,*,#366,.T.);
#368=CARTESIAN_POINT('',(0.0000,3.4000,5.4000));
#369=DIRECTION('',(0.0000,-1.0000,0.0000));
#370=VECTOR('',#369,6.8000);
#371=LINE('',#368,#370);
#372=EDGE_CURVE('',#341,#337,#371,.T.);
#373=ORIENTED_EDGE('',*,*,#372,.T.);
#374=EDGE_LOOP('',(#355,#361,#367,#373));
#375=FACE_OUTER_BOUND('',#374,.T.);
#376=CARTESIAN_POINT('',(0.0000,-3.4000,5.4000));
#377=DIRECTION('',(0.0000,0.0000,1.0000));
#378=DIRECTION('',(1.0000,0.0000,0.0000));
#379=AXIS2_PLACEMENT_3D('',#376,#377,#378);
#380=PLANE('',#379);
#381=ADVANCED_FACE('',(#375),#380,.T.);
#382=CARTESIAN_POINT('',(0.0000,-3.4000,0.0000));
#383=DIRECTION('',(0.0000,1.0000,0.0000));
#384=VECTOR('',#383,6.8000);
#385=LINE('',#382,#384);
#386=EDGE_CURVE('',#335,#339,#385,.T.);
#387=ORIENTED_EDGE('',*,*,#386,.T.);
#388=CARTESIAN_POINT('',(0.0000,3.4000,0.0000));
#389=DIRECTION('',(1.0000,0.0000,0.0000));
#390=VECTOR('',#389,2.8000);
#391=LINE('',#388,#390);
#392=EDGE_CURVE('',#339,#347,#391,.T.);
#393=ORIENTED_EDGE('',*,*,#392,.T.);
#394=CARTESIAN_POINT('',(2.8000,3.4000,0.0000));
#395=DIRECTION('',(0.0000,-1.0000,0.0000));
#396=VECTOR('',#395,6.8000);
#397=LINE('',#394,#396);
#398=EDGE_CURVE('',#347,#343,#397,.T.);
#399=ORIENTED_EDGE('',*,*,#398,.T.);
#400=CARTESIAN_POINT('',(2.8000,-3.4000,0.0000));
#401=DIRECTION('',(-1.0000,0.0000,0.0000));
#402=VECTOR('',#401,2.8000);
#403=LINE('',#400,#402);
#404=EDGE_CURVE('',#343,#335,#403,.T.);
#405=ORIENTED_EDGE('',*,*,#404,.T.);
#406=EDGE_LOOP('',(#387,#393,#399,#405));
#407=FACE_OUTER_BOUND('',#406,.T.);
#408=CARTESIAN_POINT('',(0.0000,-3.4000,0.0000));
#409=DIRECTION('',(0.0000,0.0000,-1.0000));
#410=DIRECTION('',(1.0000,0.0000,0.0000));
#411=AXIS2_PLACEMENT_3D('',#408,#409,#410);
#412=PLANE('',#411);
#413=ADVANCED_FACE('',(#407),#412,.T.);
#414=ORIENTED_EDGE('',*,*,#398,.F.);
#415=CARTESIAN_POINT('',(2.8000,3.4000,0.0000));
#416=DIRECTION('',(0.0000,0.0000,1.0000));
#417=VECTOR('',#416,5.4000);
#418=LINE('',#415,#417);
#419=EDGE_CURVE('',#347,#349,#418,.T.);
#420=ORIENTED_EDGE('',*,*,#419,.T.);
#421=ORIENTED_EDGE('',*,*,#360,.F.);
#422=CARTESIAN_POINT('',(2.8000,-3.4000,5.4000));
#423=DIRECTION('',(0.0000,0.0000,-1.0000));
#424=VECTOR('',#423,5.4000);
#425=LINE('',#422,#424);
#426=EDGE_CURVE('',#345,#343,#425,.T.);
#427=ORIENTED_EDGE('',*,*,#426,.T.);
#428=EDGE_LOOP('',(#414,#420,#421,#427));
#429=FACE_OUTER_BOUND('',#428,.T.);
#430=CARTESIAN_POINT('',(2.8000,-3.4000,0.0000));
#431=DIRECTION('',(1.0000,0.0000,0.0000));
#432=DIRECTION('',(0.0000,1.0000,0.0000));
#433=AXIS2_PLACEMENT_3D('',#430,#431,#432);
#434=PLANE('',#433);
#435=ADVANCED_FACE('',(#429),#434,.T.);
#436=CARTESIAN_POINT('',(0.0000,-3.4000,0.0000));
#437=DIRECTION('',(0.0000,0.0000,1.0000));
#438=VECTOR('',#437,5.4000);
#439=LINE('',#436,#438);
#440=EDGE_CURVE('',#335,#337,#439,.T.);
#441=ORIENTED_EDGE('',*,*,#440,.T.);
#442=ORIENTED_EDGE('',*,*,#372,.F.);
#443=CARTESIAN_POINT('',(0.0000,3.4000,5.4000));
#444=DIRECTION('',(0.0000,0.0000,-1.0000));
#445=VECTOR('',#444,5.4000);
#446=LINE('',#443,#445);
#447=EDGE_CURVE('',#341,#339,#446,.T.);
#448=ORIENTED_EDGE('',*,*,#447,.T.);
#449=ORIENTED_EDGE('',*,*,#386,.F.);
#450=EDGE_LOOP('',(#441,#442,#448,#449));
#451=FACE_OUTER_BOUND('',#450,.T.);
#452=CARTESIAN_POINT('',(0.0000,-3.4000,0.0000));
#453=DIRECTION('',(-1.0000,0.0000,0.0000));
#454=DIRECTION('',(0.0000,1.0000,0.0000));
#455=AXIS2_PLACEMENT_3D('',#452,#453,#454);
#456=PLANE('',#455);
#457=ADVANCED_FACE('',(#451),#456,.T.);
#458=ORIENTED_EDGE('',*,*,#447,.F.);
#459=ORIENTED_EDGE('',*,*,#366,.F.);
#460=ORIENTED_EDGE('',*,*,#419,.F.);
#461=ORIENTED_EDGE('',*,*,#392,.F.);
#462=EDGE_LOOP('',(#458,#459,#460,#461));
#463=FACE_OUTER_BOUND('',#462,.T.);
#464=CARTESIAN_POINT('',(0.0000,3.4000,0.0000));
#465=DIRECTION('',(0.0000,1.0000,0.0000));
#466=DIRECTION('',(1.0000,0.0000,0.0000));
#467=AXIS2_PLACEMENT_3D('',#464,#465,#466);
#468=PLANE('',#467);
#469=ADVANCED_FACE('',(#463),#468,.T.);
#470=ORIENTED_EDGE('',*,*,#404,.F.);
#471=ORIENTED_EDGE('',*,*,#426,.F.);
#472=ORIENTED_EDGE('',*,*,#354,.F.);
#473=ORIENTED_EDGE('',*,*,#440,.F.);
#474=EDGE_LOOP('',(#470,#471,#472,#473));
#475=FACE_OUTER_BOUND('',#474,.T.);
#476=CARTESIAN_POINT('',(0.0000,-3.4000,0.0000));
#477=DIRECTION('',(0.0000,-1.0000,0.0000));
#478=DIRECTION('',(1.0000,0.0000,0.0000));
#479=AXIS2_PLACEMENT_3D('',#476,#477,#478);
#480=PLANE('',#479);
#481=ADVANCED_FACE('',(#475),#480,.T.);
#482=CLOSED_SHELL('',(#381,#413,#435,#457,#469,#481));
#483=MANIFOLD_SOLID_BREP('',#482);
#484=COLOUR_RGB('',0.850,0.640,0.220);
#485=FILL_AREA_STYLE_COLOUR('',#484);
#486=FILL_AREA_STYLE('',(#485));
#487=SURFACE_STYLE_FILL_AREA(#486);
#488=SURFACE_SIDE_STYLE('',(#487));
#489=SURFACE_STYLE_USAGE(.BOTH.,#488);
#490=PRESENTATION_STYLE_ASSIGNMENT((#489));
#491=STYLED_ITEM('',(#490),#483);
#492=CARTESIAN_POINT('',(-2.4200,-1.7500,0.8500));
#493=VERTEX_POINT('',#492);
#494=CARTESIAN_POINT('',(-2.4200,-1.7500,4.3500));
#495=VERTEX_POINT('',#494);
#496=CARTESIAN_POINT('',(-2.4200,1.7500,0.8500));
#497=VERTEX_POINT('',#496);
#498=CARTESIAN_POINT('',(-2.4200,1.7500,4.3500));
#499=VERTEX_POINT('',#498);
#500=CARTESIAN_POINT('',(-2.4000,-1.7500,0.8500));
#501=VERTEX_POINT('',#500);
#502=CARTESIAN_POINT('',(-2.4000,-1.7500,4.3500));
#503=VERTEX_POINT('',#502);
#504=CARTESIAN_POINT('',(-2.4000,1.7500,0.8500));
#505=VERTEX_POINT('',#504);
#506=CARTESIAN_POINT('',(-2.4000,1.7500,4.3500));
#507=VERTEX_POINT('',#506);
#508=CARTESIAN_POINT('',(-2.4200,-1.7500,4.3500));
#509=DIRECTION('',(1.0000,0.0000,0.0000));
#510=VECTOR('',#509,0.0200);
#511=LINE('',#508,#510);
#512=EDGE_CURVE('',#495,#503,#511,.T.);
#513=ORIENTED_EDGE('',*,*,#512,.T.);
#514=CARTESIAN_POINT('',(-2.4000,-1.7500,4.3500));
#515=DIRECTION('',(0.0000,1.0000,0.0000));
#516=VECTOR('',#515,3.5000);
#517=LINE('',#514,#516);
#518=EDGE_CURVE('',#503,#507,#517,.T.);
#519=ORIENTED_EDGE('',*,*,#518,.T.);
#520=CARTESIAN_POINT('',(-2.4000,1.7500,4.3500));
#521=DIRECTION('',(-1.0000,0.0000,0.0000));
#522=VECTOR('',#521,0.0200);
#523=LINE('',#520,#522);
#524=EDGE_CURVE('',#507,#499,#523,.T.);
#525=ORIENTED_EDGE('',*,*,#524,.T.);
#526=CARTESIAN_POINT('',(-2.4200,1.7500,4.3500));
#527=DIRECTION('',(0.0000,-1.0000,0.0000));
#528=VECTOR('',#527,3.5000);
#529=LINE('',#526,#528);
#530=EDGE_CURVE('',#499,#495,#529,.T.);
#531=ORIENTED_EDGE('',*,*,#530,.T.);
#532=EDGE_LOOP('',(#513,#519,#525,#531));
#533=FACE_OUTER_BOUND('',#532,.T.);
#534=CARTESIAN_POINT('',(-2.4200,-1.7500,4.3500));
#535=DIRECTION('',(0.0000,0.0000,1.0000));
#536=DIRECTION('',(1.0000,0.0000,0.0000));
#537=AXIS2_PLACEMENT_3D('',#534,#535,#536);
#538=PLANE('',#537);
#539=ADVANCED_FACE('',(#533),#538,.T.);
#540=CARTESIAN_POINT('',(-2.4200,-1.7500,0.8500));
#541=DIRECTION('',(0.0000,1.0000,0.0000));
#542=VECTOR('',#541,3.5000);
#543=LINE('',#540,#542);
#544=EDGE_CURVE('',#493,#497,#543,.T.);
#545=ORIENTED_EDGE('',*,*,#544,.T.);
#546=CARTESIAN_POINT('',(-2.4200,1.7500,0.8500));
#547=DIRECTION('',(1.0000,0.0000,0.0000));
#548=VECTOR('',#547,0.0200);
#549=LINE('',#546,#548);
#550=EDGE_CURVE('',#497,#505,#549,.T.);
#551=ORIENTED_EDGE('',*,*,#550,.T.);
#552=CARTESIAN_POINT('',(-2.4000,1.7500,0.8500));
#553=DIRECTION('',(0.0000,-1.0000,0.0000));
#554=VECTOR('',#553,3.5000);
#555=LINE('',#552,#554);
#556=EDGE_CURVE('',#505,#501,#555,.T.);
#557=ORIENTED_EDGE('',*,*,#556,.T.);
#558=CARTESIAN_POINT('',(-2.4000,-1.7500,0.8500));
#559=DIRECTION('',(-1.0000,0.0000,0.0000));
#560=VECTOR('',#559,0.0200);
#561=LINE('',#558,#560);
#562=EDGE_CURVE('',#501,#493,#561,.T.);
#563=ORIENTED_EDGE('',*,*,#562,.T.);
#564=EDGE_LOOP('',(#545,#551,#557,#563));
#565=FACE_OUTER_BOUND('',#564,.T.);
#566=CARTESIAN_POINT('',(-2.4200,-1.7500,0.8500));
#567=DIRECTION('',(0.0000,0.0000,-1.0000));
#568=DIRECTION('',(1.0000,0.0000,0.0000));
#569=AXIS2_PLACEMENT_3D('',#566,#567,#568);
#570=PLANE('',#569);
#571=ADVANCED_FACE('',(#565),#570,.T.);
#572=ORIENTED_EDGE('',*,*,#556,.F.);
#573=CARTESIAN_POINT('',(-2.4000,1.7500,0.8500));
#574=DIRECTION('',(0.0000,0.0000,1.0000));
#575=VECTOR('',#574,3.5000);
#576=LINE('',#573,#575);
#577=EDGE_CURVE('',#505,#507,#576,.T.);
#578=ORIENTED_EDGE('',*,*,#577,.T.);
#579=ORIENTED_EDGE('',*,*,#518,.F.);
#580=CARTESIAN_POINT('',(-2.4000,-1.7500,4.3500));
#581=DIRECTION('',(0.0000,0.0000,-1.0000));
#582=VECTOR('',#581,3.5000);
#583=LINE('',#580,#582);
#584=EDGE_CURVE('',#503,#501,#583,.T.);
#585=ORIENTED_EDGE('',*,*,#584,.T.);
#586=EDGE_LOOP('',(#572,#578,#579,#585));
#587=FACE_OUTER_BOUND('',#586,.T.);
#588=CARTESIAN_POINT('',(-2.4000,-1.7500,0.8500));
#589=DIRECTION('',(1.0000,0.0000,0.0000));
#590=DIRECTION('',(0.0000,1.0000,0.0000));
#591=AXIS2_PLACEMENT_3D('',#588,#589,#590);
#592=PLANE('',#591);
#593=ADVANCED_FACE('',(#587),#592,.T.);
#594=CARTESIAN_POINT('',(-2.4200,-1.7500,0.8500));
#595=DIRECTION('',(0.0000,0.0000,1.0000));
#596=VECTOR('',#595,3.5000);
#597=LINE('',#594,#596);
#598=EDGE_CURVE('',#493,#495,#597,.T.);
#599=ORIENTED_EDGE('',*,*,#598,.T.);
#600=ORIENTED_EDGE('',*,*,#530,.F.);
#601=CARTESIAN_POINT('',(-2.4200,1.7500,4.3500));
#602=DIRECTION('',(0.0000,0.0000,-1.0000));
#603=VECTOR('',#602,3.5000);
#604=LINE('',#601,#603);
#605=EDGE_CURVE('',#499,#497,#604,.T.);
#606=ORIENTED_EDGE('',*,*,#605,.T.);
#607=ORIENTED_EDGE('',*,*,#544,.F.);
#608=EDGE_LOOP('',(#599,#600,#606,#607));
#609=FACE_OUTER_BOUND('',#608,.T.);
#610=CARTESIAN_POINT('',(-2.4200,-1.7500,0.8500));
#611=DIRECTION('',(-1.0000,0.0000,0.0000));
#612=DIRECTION('',(0.0000,1.0000,0.0000));
#613=AXIS2_PLACEMENT_3D('',#610,#611,#612);
#614=PLANE('',#613);
#615=ADVANCED_FACE('',(#609),#614,.T.);
#616=ORIENTED_EDGE('',*,*,#605,.F.);
#617=ORIENTED_EDGE('',*,*,#524,.F.);
#618=ORIENTED_EDGE('',*,*,#577,.F.);
#619=ORIENTED_EDGE('',*,*,#550,.F.);
#620=EDGE_LOOP('',(#616,#617,#618,#619));
#621=FACE_OUTER_BOUND('',#620,.T.);
#622=CARTESIAN_POINT('',(-2.4200,1.7500,0.8500));
#623=DIRECTION('',(0.0000,1.0000,0.0000));
#624=DIRECTION('',(1.0000,0.0000,0.0000));
#625=AXIS2_PLACEMENT_3D('',#622,#623,#624);
#626=PLANE('',#625);
#627=ADVANCED_FACE('',(#621),#626,.T.);
#628=ORIENTED_EDGE('',*,*,#562,.F.);
#629=ORIENTED_EDGE('',*,*,#584,.F.);
#630=ORIENTED_EDGE('',*,*,#512,.F.);
#631=ORIENTED_EDGE('',*,*,#598,.F.);
#632=EDGE_LOOP('',(#628,#629,#630,#631));
#633=FACE_OUTER_BOUND('',#632,.T.);
#634=CARTESIAN_POINT('',(-2.4200,-1.7500,0.8500));
#635=DIRECTION('',(0.0000,-1.0000,0.0000));
#636=DIRECTION('',(1.0000,0.0000,0.0000));
#637=AXIS2_PLACEMENT_3D('',#634,#635,#636);
#638=PLANE('',#637);
#639=ADVANCED_FACE('',(#633),#638,.T.);
#640=CLOSED_SHELL('',(#539,#571,#593,#615,#627,#639));
#641=MANIFOLD_SOLID_BREP('',#640);
#642=COLOUR_RGB('',0.020,0.020,0.020);
#643=FILL_AREA_STYLE_COLOUR('',#642);
#644=FILL_AREA_STYLE('',(#643));
#645=SURFACE_STYLE_FILL_AREA(#644);
#646=SURFACE_SIDE_STYLE('',(#645));
#647=SURFACE_STYLE_USAGE(.BOTH.,#646);
#648=PRESENTATION_STYLE_ASSIGNMENT((#647));
#649=STYLED_ITEM('',(#648),#641);
#650=CARTESIAN_POINT('',(0.6000,3.4500,0.0000));
#651=VERTEX_POINT('',#650);
#652=CARTESIAN_POINT('',(0.6000,3.4500,0.3000));
#653=VERTEX_POINT('',#652);
#654=CARTESIAN_POINT('',(0.6000,4.3500,0.0000));
#655=VERTEX_POINT('',#654);
#656=CARTESIAN_POINT('',(0.6000,4.3500,0.3000));
#657=VERTEX_POINT('',#656);
#658=CARTESIAN_POINT('',(1.8000,3.4500,0.0000));
#659=VERTEX_POINT('',#658);
#660=CARTESIAN_POINT('',(1.8000,3.4500,0.3000));
#661=VERTEX_POINT('',#660);
#662=CARTESIAN_POINT('',(1.8000,4.3500,0.0000));
#663=VERTEX_POINT('',#662);
#664=CARTESIAN_POINT('',(1.8000,4.3500,0.3000));
#665=VERTEX_POINT('',#664);
#666=CARTESIAN_POINT('',(0.6000,3.4500,0.3000));
#667=DIRECTION('',(1.0000,0.0000,0.0000));
#668=VECTOR('',#667,1.2000);
#669=LINE('',#666,#668);
#670=EDGE_CURVE('',#653,#661,#669,.T.);
#671=ORIENTED_EDGE('',*,*,#670,.T.);
#672=CARTESIAN_POINT('',(1.8000,3.4500,0.3000));
#673=DIRECTION('',(0.0000,1.0000,0.0000));
#674=VECTOR('',#673,0.9000);
#675=LINE('',#672,#674);
#676=EDGE_CURVE('',#661,#665,#675,.T.);
#677=ORIENTED_EDGE('',*,*,#676,.T.);
#678=CARTESIAN_POINT('',(1.8000,4.3500,0.3000));
#679=DIRECTION('',(-1.0000,0.0000,0.0000));
#680=VECTOR('',#679,1.2000);
#681=LINE('',#678,#680);
#682=EDGE_CURVE('',#665,#657,#681,.T.);
#683=ORIENTED_EDGE('',*,*,#682,.T.);
#684=CARTESIAN_POINT('',(0.6000,4.3500,0.3000));
#685=DIRECTION('',(0.0000,-1.0000,0.0000));
#686=VECTOR('',#685,0.9000);
#687=LINE('',#684,#686);
#688=EDGE_CURVE('',#657,#653,#687,.T.);
#689=ORIENTED_EDGE('',*,*,#688,.T.);
#690=EDGE_LOOP('',(#671,#677,#683,#689));
#691=FACE_OUTER_BOUND('',#690,.T.);
#692=CARTESIAN_POINT('',(0.6000,3.4500,0.3000));
#693=DIRECTION('',(0.0000,0.0000,1.0000));
#694=DIRECTION('',(1.0000,0.0000,0.0000));
#695=AXIS2_PLACEMENT_3D('',#692,#693,#694);
#696=PLANE('',#695);
#697=ADVANCED_FACE('',(#691),#696,.T.);
#698=CARTESIAN_POINT('',(0.6000,3.4500,0.0000));
#699=DIRECTION('',(0.0000,1.0000,0.0000));
#700=VECTOR('',#699,0.9000);
#701=LINE('',#698,#700);
#702=EDGE_CURVE('',#651,#655,#701,.T.);
#703=ORIENTED_EDGE('',*,*,#702,.T.);
#704=CARTESIAN_POINT('',(0.6000,4.3500,0.0000));
#705=DIRECTION('',(1.0000,0.0000,0.0000));
#706=VECTOR('',#705,1.2000);
#707=LINE('',#704,#706);
#708=EDGE_CURVE('',#655,#663,#707,.T.);
#709=ORIENTED_EDGE('',*,*,#708,.T.);
#710=CARTESIAN_POINT('',(1.8000,4.3500,0.0000));
#711=DIRECTION('',(0.0000,-1.0000,0.0000));
#712=VECTOR('',#711,0.9000);
#713=LINE('',#710,#712);
#714=EDGE_CURVE('',#663,#659,#713,.T.);
#715=ORIENTED_EDGE('',*,*,#714,.T.);
#716=CARTESIAN_POINT('',(1.8000,3.4500,0.0000));
#717=DIRECTION('',(-1.0000,0.0000,0.0000));
#718=VECTOR('',#717,1.2000);
#719=LINE('',#716,#718);
#720=EDGE_CURVE('',#659,#651,#719,.T.);
#721=ORIENTED_EDGE('',*,*,#720,.T.);
#722=EDGE_LOOP('',(#703,#709,#715,#721));
#723=FACE_OUTER_BOUND('',#722,.T.);
#724=CARTESIAN_POINT('',(0.6000,3.4500,0.0000));
#725=DIRECTION('',(0.0000,0.0000,-1.0000));
#726=DIRECTION('',(1.0000,0.0000,0.0000));
#727=AXIS2_PLACEMENT_3D('',#724,#725,#726);
#728=PLANE('',#727);
#729=ADVANCED_FACE('',(#723),#728,.T.);
#730=ORIENTED_EDGE('',*,*,#714,.F.);
#731=CARTESIAN_POINT('',(1.8000,4.3500,0.0000));
#732=DIRECTION('',(0.0000,0.0000,1.0000));
#733=VECTOR('',#732,0.3000);
#734=LINE('',#731,#733);
#735=EDGE_CURVE('',#663,#665,#734,.T.);
#736=ORIENTED_EDGE('',*,*,#735,.T.);
#737=ORIENTED_EDGE('',*,*,#676,.F.);
#738=CARTESIAN_POINT('',(1.8000,3.4500,0.3000));
#739=DIRECTION('',(0.0000,0.0000,-1.0000));
#740=VECTOR('',#739,0.3000);
#741=LINE('',#738,#740);
#742=EDGE_CURVE('',#661,#659,#741,.T.);
#743=ORIENTED_EDGE('',*,*,#742,.T.);
#744=EDGE_LOOP('',(#730,#736,#737,#743));
#745=FACE_OUTER_BOUND('',#744,.T.);
#746=CARTESIAN_POINT('',(1.8000,3.4500,0.0000));
#747=DIRECTION('',(1.0000,0.0000,0.0000));
#748=DIRECTION('',(0.0000,1.0000,0.0000));
#749=AXIS2_PLACEMENT_3D('',#746,#747,#748);
#750=PLANE('',#749);
#751=ADVANCED_FACE('',(#745),#750,.T.);
#752=CARTESIAN_POINT('',(0.6000,3.4500,0.0000));
#753=DIRECTION('',(0.0000,0.0000,1.0000));
#754=VECTOR('',#753,0.3000);
#755=LINE('',#752,#754);
#756=EDGE_CURVE('',#651,#653,#755,.T.);
#757=ORIENTED_EDGE('',*,*,#756,.T.);
#758=ORIENTED_EDGE('',*,*,#688,.F.);
#759=CARTESIAN_POINT('',(0.6000,4.3500,0.3000));
#760=DIRECTION('',(0.0000,0.0000,-1.0000));
#761=VECTOR('',#760,0.3000);
#762=LINE('',#759,#761);
#763=EDGE_CURVE('',#657,#655,#762,.T.);
#764=ORIENTED_EDGE('',*,*,#763,.T.);
#765=ORIENTED_EDGE('',*,*,#702,.F.);
#766=EDGE_LOOP('',(#757,#758,#764,#765));
#767=FACE_OUTER_BOUND('',#766,.T.);
#768=CARTESIAN_POINT('',(0.6000,3.4500,0.0000));
#769=DIRECTION('',(-1.0000,0.0000,0.0000));
#770=DIRECTION('',(0.0000,1.0000,0.0000));
#771=AXIS2_PLACEMENT_3D('',#768,#769,#770);
#772=PLANE('',#771);
#773=ADVANCED_FACE('',(#767),#772,.T.);
#774=ORIENTED_EDGE('',*,*,#763,.F.);
#775=ORIENTED_EDGE('',*,*,#682,.F.);
#776=ORIENTED_EDGE('',*,*,#735,.F.);
#777=ORIENTED_EDGE('',*,*,#708,.F.);
#778=EDGE_LOOP('',(#774,#775,#776,#777));
#779=FACE_OUTER_BOUND('',#778,.T.);
#780=CARTESIAN_POINT('',(0.6000,4.3500,0.0000));
#781=DIRECTION('',(0.0000,1.0000,0.0000));
#782=DIRECTION('',(1.0000,0.0000,0.0000));
#783=AXIS2_PLACEMENT_3D('',#780,#781,#782);
#784=PLANE('',#783);
#785=ADVANCED_FACE('',(#779),#784,.T.);
#786=ORIENTED_EDGE('',*,*,#720,.F.);
#787=ORIENTED_EDGE('',*,*,#742,.F.);
#788=ORIENTED_EDGE('',*,*,#670,.F.);
#789=ORIENTED_EDGE('',*,*,#756,.F.);
#790=EDGE_LOOP('',(#786,#787,#788,#789));
#791=FACE_OUTER_BOUND('',#790,.T.);
#792=CARTESIAN_POINT('',(0.6000,3.4500,0.0000));
#793=DIRECTION('',(0.0000,-1.0000,0.0000));
#794=DIRECTION('',(1.0000,0.0000,0.0000));
#795=AXIS2_PLACEMENT_3D('',#792,#793,#794);
#796=PLANE('',#795);
#797=ADVANCED_FACE('',(#791),#796,.T.);
#798=CLOSED_SHELL('',(#697,#729,#751,#773,#785,#797));
#799=MANIFOLD_SOLID_BREP('',#798);
#800=COLOUR_RGB('',0.850,0.640,0.220);
#801=FILL_AREA_STYLE_COLOUR('',#800);
#802=FILL_AREA_STYLE('',(#801));
#803=SURFACE_STYLE_FILL_AREA(#802);
#804=SURFACE_SIDE_STYLE('',(#803));
#805=SURFACE_STYLE_USAGE(.BOTH.,#804);
#806=PRESENTATION_STYLE_ASSIGNMENT((#805));
#807=STYLED_ITEM('',(#806),#799);
#808=CARTESIAN_POINT('',(0.6000,-4.3500,0.0000));
#809=VERTEX_POINT('',#808);
#810=CARTESIAN_POINT('',(0.6000,-4.3500,0.3000));
#811=VERTEX_POINT('',#810);
#812=CARTESIAN_POINT('',(0.6000,-3.4500,0.0000));
#813=VERTEX_POINT('',#812);
#814=CARTESIAN_POINT('',(0.6000,-3.4500,0.3000));
#815=VERTEX_POINT('',#814);
#816=CARTESIAN_POINT('',(1.8000,-4.3500,0.0000));
#817=VERTEX_POINT('',#816);
#818=CARTESIAN_POINT('',(1.8000,-4.3500,0.3000));
#819=VERTEX_POINT('',#818);
#820=CARTESIAN_POINT('',(1.8000,-3.4500,0.0000));
#821=VERTEX_POINT('',#820);
#822=CARTESIAN_POINT('',(1.8000,-3.4500,0.3000));
#823=VERTEX_POINT('',#822);
#824=CARTESIAN_POINT('',(0.6000,-4.3500,0.3000));
#825=DIRECTION('',(1.0000,0.0000,0.0000));
#826=VECTOR('',#825,1.2000);
#827=LINE('',#824,#826);
#828=EDGE_CURVE('',#811,#819,#827,.T.);
#829=ORIENTED_EDGE('',*,*,#828,.T.);
#830=CARTESIAN_POINT('',(1.8000,-4.3500,0.3000));
#831=DIRECTION('',(0.0000,1.0000,0.0000));
#832=VECTOR('',#831,0.9000);
#833=LINE('',#830,#832);
#834=EDGE_CURVE('',#819,#823,#833,.T.);
#835=ORIENTED_EDGE('',*,*,#834,.T.);
#836=CARTESIAN_POINT('',(1.8000,-3.4500,0.3000));
#837=DIRECTION('',(-1.0000,0.0000,0.0000));
#838=VECTOR('',#837,1.2000);
#839=LINE('',#836,#838);
#840=EDGE_CURVE('',#823,#815,#839,.T.);
#841=ORIENTED_EDGE('',*,*,#840,.T.);
#842=CARTESIAN_POINT('',(0.6000,-3.4500,0.3000));
#843=DIRECTION('',(0.0000,-1.0000,0.0000));
#844=VECTOR('',#843,0.9000);
#845=LINE('',#842,#844);
#846=EDGE_CURVE('',#815,#811,#845,.T.);
#847=ORIENTED_EDGE('',*,*,#846,.T.);
#848=EDGE_LOOP('',(#829,#835,#841,#847));
#849=FACE_OUTER_BOUND('',#848,.T.);
#850=CARTESIAN_POINT('',(0.6000,-4.3500,0.3000));
#851=DIRECTION('',(0.0000,0.0000,1.0000));
#852=DIRECTION('',(1.0000,0.0000,0.0000));
#853=AXIS2_PLACEMENT_3D('',#850,#851,#852);
#854=PLANE('',#853);
#855=ADVANCED_FACE('',(#849),#854,.T.);
#856=CARTESIAN_POINT('',(0.6000,-4.3500,0.0000));
#857=DIRECTION('',(0.0000,1.0000,0.0000));
#858=VECTOR('',#857,0.9000);
#859=LINE('',#856,#858);
#860=EDGE_CURVE('',#809,#813,#859,.T.);
#861=ORIENTED_EDGE('',*,*,#860,.T.);
#862=CARTESIAN_POINT('',(0.6000,-3.4500,0.0000));
#863=DIRECTION('',(1.0000,0.0000,0.0000));
#864=VECTOR('',#863,1.2000);
#865=LINE('',#862,#864);
#866=EDGE_CURVE('',#813,#821,#865,.T.);
#867=ORIENTED_EDGE('',*,*,#866,.T.);
#868=CARTESIAN_POINT('',(1.8000,-3.4500,0.0000));
#869=DIRECTION('',(0.0000,-1.0000,0.0000));
#870=VECTOR('',#869,0.9000);
#871=LINE('',#868,#870);
#872=EDGE_CURVE('',#821,#817,#871,.T.);
#873=ORIENTED_EDGE('',*,*,#872,.T.);
#874=CARTESIAN_POINT('',(1.8000,-4.3500,0.0000));
#875=DIRECTION('',(-1.0000,0.0000,0.0000));
#876=VECTOR('',#875,1.2000);
#877=LINE('',#874,#876);
#878=EDGE_CURVE('',#817,#809,#877,.T.);
#879=ORIENTED_EDGE('',*,*,#878,.T.);
#880=EDGE_LOOP('',(#861,#867,#873,#879));
#881=FACE_OUTER_BOUND('',#880,.T.);
#882=CARTESIAN_POINT('',(0.6000,-4.3500,0.0000));
#883=DIRECTION('',(0.0000,0.0000,-1.0000));
#884=DIRECTION('',(1.0000,0.0000,0.0000));
#885=AXIS2_PLACEMENT_3D('',#882,#883,#884);
#886=PLANE('',#885);
#887=ADVANCED_FACE('',(#881),#886,.T.);
#888=ORIENTED_EDGE('',*,*,#872,.F.);
#889=CARTESIAN_POINT('',(1.8000,-3.4500,0.0000));
#890=DIRECTION('',(0.0000,0.0000,1.0000));
#891=VECTOR('',#890,0.3000);
#892=LINE('',#889,#891);
#893=EDGE_CURVE('',#821,#823,#892,.T.);
#894=ORIENTED_EDGE('',*,*,#893,.T.);
#895=ORIENTED_EDGE('',*,*,#834,.F.);
#896=CARTESIAN_POINT('',(1.8000,-4.3500,0.3000));
#897=DIRECTION('',(0.0000,0.0000,-1.0000));
#898=VECTOR('',#897,0.3000);
#899=LINE('',#896,#898);
#900=EDGE_CURVE('',#819,#817,#899,.T.);
#901=ORIENTED_EDGE('',*,*,#900,.T.);
#902=EDGE_LOOP('',(#888,#894,#895,#901));
#903=FACE_OUTER_BOUND('',#902,.T.);
#904=CARTESIAN_POINT('',(1.8000,-4.3500,0.0000));
#905=DIRECTION('',(1.0000,0.0000,0.0000));
#906=DIRECTION('',(0.0000,1.0000,0.0000));
#907=AXIS2_PLACEMENT_3D('',#904,#905,#906);
#908=PLANE('',#907);
#909=ADVANCED_FACE('',(#903),#908,.T.);
#910=CARTESIAN_POINT('',(0.6000,-4.3500,0.0000));
#911=DIRECTION('',(0.0000,0.0000,1.0000));
#912=VECTOR('',#911,0.3000);
#913=LINE('',#910,#912);
#914=EDGE_CURVE('',#809,#811,#913,.T.);
#915=ORIENTED_EDGE('',*,*,#914,.T.);
#916=ORIENTED_EDGE('',*,*,#846,.F.);
#917=CARTESIAN_POINT('',(0.6000,-3.4500,0.3000));
#918=DIRECTION('',(0.0000,0.0000,-1.0000));
#919=VECTOR('',#918,0.3000);
#920=LINE('',#917,#919);
#921=EDGE_CURVE('',#815,#813,#920,.T.);
#922=ORIENTED_EDGE('',*,*,#921,.T.);
#923=ORIENTED_EDGE('',*,*,#860,.F.);
#924=EDGE_LOOP('',(#915,#916,#922,#923));
#925=FACE_OUTER_BOUND('',#924,.T.);
#926=CARTESIAN_POINT('',(0.6000,-4.3500,0.0000));
#927=DIRECTION('',(-1.0000,0.0000,0.0000));
#928=DIRECTION('',(0.0000,1.0000,0.0000));
#929=AXIS2_PLACEMENT_3D('',#926,#927,#928);
#930=PLANE('',#929);
#931=ADVANCED_FACE('',(#925),#930,.T.);
#932=ORIENTED_EDGE('',*,*,#921,.F.);
#933=ORIENTED_EDGE('',*,*,#840,.F.);
#934=ORIENTED_EDGE('',*,*,#893,.F.);
#935=ORIENTED_EDGE('',*,*,#866,.F.);
#936=EDGE_LOOP('',(#932,#933,#934,#935));
#937=FACE_OUTER_BOUND('',#936,.T.);
#938=CARTESIAN_POINT('',(0.6000,-3.4500,0.0000));
#939=DIRECTION('',(0.0000,1.0000,0.0000));
#940=DIRECTION('',(1.0000,0.0000,0.0000));
#941=AXIS2_PLACEMENT_3D('',#938,#939,#940);
#942=PLANE('',#941);
#943=ADVANCED_FACE('',(#937),#942,.T.);
#944=ORIENTED_EDGE('',*,*,#878,.F.);
#945=ORIENTED_EDGE('',*,*,#900,.F.);
#946=ORIENTED_EDGE('',*,*,#828,.F.);
#947=ORIENTED_EDGE('',*,*,#914,.F.);
#948=EDGE_LOOP('',(#944,#945,#946,#947));
#949=FACE_OUTER_BOUND('',#948,.T.);
#950=CARTESIAN_POINT('',(0.6000,-4.3500,0.0000));
#951=DIRECTION('',(0.0000,-1.0000,0.0000));
#952=DIRECTION('',(1.0000,0.0000,0.0000));
#953=AXIS2_PLACEMENT_3D('',#950,#951,#952);
#954=PLANE('',#953);
#955=ADVANCED_FACE('',(#949),#954,.T.);
#956=CLOSED_SHELL('',(#855,#887,#909,#931,#943,#955));
#957=MANIFOLD_SOLID_BREP('',#956);
#958=COLOUR_RGB('',0.850,0.640,0.220);
#959=FILL_AREA_STYLE_COLOUR('',#958);
#960=FILL_AREA_STYLE('',(#959));
#961=SURFACE_STYLE_FILL_AREA(#960);
#962=SURFACE_SIDE_STYLE('',(#961));
#963=SURFACE_STYLE_USAGE(.BOTH.,#962);
#964=PRESENTATION_STYLE_ASSIGNMENT((#963));
#965=STYLED_ITEM('',(#964),#957);
#966=CARTESIAN_POINT('',(5.4000,3.4500,0.0000));
#967=VERTEX_POINT('',#966);
#968=CARTESIAN_POINT('',(5.4000,3.4500,0.3000));
#969=VERTEX_POINT('',#968);
#970=CARTESIAN_POINT('',(5.4000,4.3500,0.0000));
#971=VERTEX_POINT('',#970);
#972=CARTESIAN_POINT('',(5.4000,4.3500,0.3000));
#973=VERTEX_POINT('',#972);
#974=CARTESIAN_POINT('',(6.6000,3.4500,0.0000));
#975=VERTEX_POINT('',#974);
#976=CARTESIAN_POINT('',(6.6000,3.4500,0.3000));
#977=VERTEX_POINT('',#976);
#978=CARTESIAN_POINT('',(6.6000,4.3500,0.0000));
#979=VERTEX_POINT('',#978);
#980=CARTESIAN_POINT('',(6.6000,4.3500,0.3000));
#981=VERTEX_POINT('',#980);
#982=CARTESIAN_POINT('',(5.4000,3.4500,0.3000));
#983=DIRECTION('',(1.0000,0.0000,0.0000));
#984=VECTOR('',#983,1.2000);
#985=LINE('',#982,#984);
#986=EDGE_CURVE('',#969,#977,#985,.T.);
#987=ORIENTED_EDGE('',*,*,#986,.T.);
#988=CARTESIAN_POINT('',(6.6000,3.4500,0.3000));
#989=DIRECTION('',(0.0000,1.0000,0.0000));
#990=VECTOR('',#989,0.9000);
#991=LINE('',#988,#990);
#992=EDGE_CURVE('',#977,#981,#991,.T.);
#993=ORIENTED_EDGE('',*,*,#992,.T.);
#994=CARTESIAN_POINT('',(6.6000,4.3500,0.3000));
#995=DIRECTION('',(-1.0000,0.0000,0.0000));
#996=VECTOR('',#995,1.2000);
#997=LINE('',#994,#996);
#998=EDGE_CURVE('',#981,#973,#997,.T.);
#999=ORIENTED_EDGE('',*,*,#998,.T.);
#1000=CARTESIAN_POINT('',(5.4000,4.3500,0.3000));
#1001=DIRECTION('',(0.0000,-1.0000,0.0000));
#1002=VECTOR('',#1001,0.9000);
#1003=LINE('',#1000,#1002);
#1004=EDGE_CURVE('',#973,#969,#1003,.T.);
#1005=ORIENTED_EDGE('',*,*,#1004,.T.);
#1006=EDGE_LOOP('',(#987,#993,#999,#1005));
#1007=FACE_OUTER_BOUND('',#1006,.T.);
#1008=CARTESIAN_POINT('',(5.4000,3.4500,0.3000));
#1009=DIRECTION('',(0.0000,0.0000,1.0000));
#1010=DIRECTION('',(1.0000,0.0000,0.0000));
#1011=AXIS2_PLACEMENT_3D('',#1008,#1009,#1010);
#1012=PLANE('',#1011);
#1013=ADVANCED_FACE('',(#1007),#1012,.T.);
#1014=CARTESIAN_POINT('',(5.4000,3.4500,0.0000));
#1015=DIRECTION('',(0.0000,1.0000,0.0000));
#1016=VECTOR('',#1015,0.9000);
#1017=LINE('',#1014,#1016);
#1018=EDGE_CURVE('',#967,#971,#1017,.T.);
#1019=ORIENTED_EDGE('',*,*,#1018,.T.);
#1020=CARTESIAN_POINT('',(5.4000,4.3500,0.0000));
#1021=DIRECTION('',(1.0000,0.0000,0.0000));
#1022=VECTOR('',#1021,1.2000);
#1023=LINE('',#1020,#1022);
#1024=EDGE_CURVE('',#971,#979,#1023,.T.);
#1025=ORIENTED_EDGE('',*,*,#1024,.T.);
#1026=CARTESIAN_POINT('',(6.6000,4.3500,0.0000));
#1027=DIRECTION('',(0.0000,-1.0000,0.0000));
#1028=VECTOR('',#1027,0.9000);
#1029=LINE('',#1026,#1028);
#1030=EDGE_CURVE('',#979,#975,#1029,.T.);
#1031=ORIENTED_EDGE('',*,*,#1030,.T.);
#1032=CARTESIAN_POINT('',(6.6000,3.4500,0.0000));
#1033=DIRECTION('',(-1.0000,0.0000,0.0000));
#1034=VECTOR('',#1033,1.2000);
#1035=LINE('',#1032,#1034);
#1036=EDGE_CURVE('',#975,#967,#1035,.T.);
#1037=ORIENTED_EDGE('',*,*,#1036,.T.);
#1038=EDGE_LOOP('',(#1019,#1025,#1031,#1037));
#1039=FACE_OUTER_BOUND('',#1038,.T.);
#1040=CARTESIAN_POINT('',(5.4000,3.4500,0.0000));
#1041=DIRECTION('',(0.0000,0.0000,-1.0000));
#1042=DIRECTION('',(1.0000,0.0000,0.0000));
#1043=AXIS2_PLACEMENT_3D('',#1040,#1041,#1042);
#1044=PLANE('',#1043);
#1045=ADVANCED_FACE('',(#1039),#1044,.T.);
#1046=ORIENTED_EDGE('',*,*,#1030,.F.);
#1047=CARTESIAN_POINT('',(6.6000,4.3500,0.0000));
#1048=DIRECTION('',(0.0000,0.0000,1.0000));
#1049=VECTOR('',#1048,0.3000);
#1050=LINE('',#1047,#1049);
#1051=EDGE_CURVE('',#979,#981,#1050,.T.);
#1052=ORIENTED_EDGE('',*,*,#1051,.T.);
#1053=ORIENTED_EDGE('',*,*,#992,.F.);
#1054=CARTESIAN_POINT('',(6.6000,3.4500,0.3000));
#1055=DIRECTION('',(0.0000,0.0000,-1.0000));
#1056=VECTOR('',#1055,0.3000);
#1057=LINE('',#1054,#1056);
#1058=EDGE_CURVE('',#977,#975,#1057,.T.);
#1059=ORIENTED_EDGE('',*,*,#1058,.T.);
#1060=EDGE_LOOP('',(#1046,#1052,#1053,#1059));
#1061=FACE_OUTER_BOUND('',#1060,.T.);
#1062=CARTESIAN_POINT('',(6.6000,3.4500,0.0000));
#1063=DIRECTION('',(1.0000,0.0000,0.0000));
#1064=DIRECTION('',(0.0000,1.0000,0.0000));
#1065=AXIS2_PLACEMENT_3D('',#1062,#1063,#1064);
#1066=PLANE('',#1065);
#1067=ADVANCED_FACE('',(#1061),#1066,.T.);
#1068=CARTESIAN_POINT('',(5.4000,3.4500,0.0000));
#1069=DIRECTION('',(0.0000,0.0000,1.0000));
#1070=VECTOR('',#1069,0.3000);
#1071=LINE('',#1068,#1070);
#1072=EDGE_CURVE('',#967,#969,#1071,.T.);
#1073=ORIENTED_EDGE('',*,*,#1072,.T.);
#1074=ORIENTED_EDGE('',*,*,#1004,.F.);
#1075=CARTESIAN_POINT('',(5.4000,4.3500,0.3000));
#1076=DIRECTION('',(0.0000,0.0000,-1.0000));
#1077=VECTOR('',#1076,0.3000);
#1078=LINE('',#1075,#1077);
#1079=EDGE_CURVE('',#973,#971,#1078,.T.);
#1080=ORIENTED_EDGE('',*,*,#1079,.T.);
#1081=ORIENTED_EDGE('',*,*,#1018,.F.);
#1082=EDGE_LOOP('',(#1073,#1074,#1080,#1081));
#1083=FACE_OUTER_BOUND('',#1082,.T.);
#1084=CARTESIAN_POINT('',(5.4000,3.4500,0.0000));
#1085=DIRECTION('',(-1.0000,0.0000,0.0000));
#1086=DIRECTION('',(0.0000,1.0000,0.0000));
#1087=AXIS2_PLACEMENT_3D('',#1084,#1085,#1086);
#1088=PLANE('',#1087);
#1089=ADVANCED_FACE('',(#1083),#1088,.T.);
#1090=ORIENTED_EDGE('',*,*,#1079,.F.);
#1091=ORIENTED_EDGE('',*,*,#998,.F.);
#1092=ORIENTED_EDGE('',*,*,#1051,.F.);
#1093=ORIENTED_EDGE('',*,*,#1024,.F.);
#1094=EDGE_LOOP('',(#1090,#1091,#1092,#1093));
#1095=FACE_OUTER_BOUND('',#1094,.T.);
#1096=CARTESIAN_POINT('',(5.4000,4.3500,0.0000));
#1097=DIRECTION('',(0.0000,1.0000,0.0000));
#1098=DIRECTION('',(1.0000,0.0000,0.0000));
#1099=AXIS2_PLACEMENT_3D('',#1096,#1097,#1098);
#1100=PLANE('',#1099);
#1101=ADVANCED_FACE('',(#1095),#1100,.T.);
#1102=ORIENTED_EDGE('',*,*,#1036,.F.);
#1103=ORIENTED_EDGE('',*,*,#1058,.F.);
#1104=ORIENTED_EDGE('',*,*,#986,.F.);
#1105=ORIENTED_EDGE('',*,*,#1072,.F.);
#1106=EDGE_LOOP('',(#1102,#1103,#1104,#1105));
#1107=FACE_OUTER_BOUND('',#1106,.T.);
#1108=CARTESIAN_POINT('',(5.4000,3.4500,0.0000));
#1109=DIRECTION('',(0.0000,-1.0000,0.0000));
#1110=DIRECTION('',(1.0000,0.0000,0.0000));
#1111=AXIS2_PLACEMENT_3D('',#1108,#1109,#1110);
#1112=PLANE('',#1111);
#1113=ADVANCED_FACE('',(#1107),#1112,.T.);
#1114=CLOSED_SHELL('',(#1013,#1045,#1067,#1089,#1101,#1113));
#1115=MANIFOLD_SOLID_BREP('',#1114);
#1116=COLOUR_RGB('',0.850,0.640,0.220);
#1117=FILL_AREA_STYLE_COLOUR('',#1116);
#1118=FILL_AREA_STYLE('',(#1117));
#1119=SURFACE_STYLE_FILL_AREA(#1118);
#1120=SURFACE_SIDE_STYLE('',(#1119));
#1121=SURFACE_STYLE_USAGE(.BOTH.,#1120);
#1122=PRESENTATION_STYLE_ASSIGNMENT((#1121));
#1123=STYLED_ITEM('',(#1122),#1115);
#1124=CARTESIAN_POINT('',(5.4000,-4.3500,0.0000));
#1125=VERTEX_POINT('',#1124);
#1126=CARTESIAN_POINT('',(5.4000,-4.3500,0.3000));
#1127=VERTEX_POINT('',#1126);
#1128=CARTESIAN_POINT('',(5.4000,-3.4500,0.0000));
#1129=VERTEX_POINT('',#1128);
#1130=CARTESIAN_POINT('',(5.4000,-3.4500,0.3000));
#1131=VERTEX_POINT('',#1130);
#1132=CARTESIAN_POINT('',(6.6000,-4.3500,0.0000));
#1133=VERTEX_POINT('',#1132);
#1134=CARTESIAN_POINT('',(6.6000,-4.3500,0.3000));
#1135=VERTEX_POINT('',#1134);
#1136=CARTESIAN_POINT('',(6.6000,-3.4500,0.0000));
#1137=VERTEX_POINT('',#1136);
#1138=CARTESIAN_POINT('',(6.6000,-3.4500,0.3000));
#1139=VERTEX_POINT('',#1138);
#1140=CARTESIAN_POINT('',(5.4000,-4.3500,0.3000));
#1141=DIRECTION('',(1.0000,0.0000,0.0000));
#1142=VECTOR('',#1141,1.2000);
#1143=LINE('',#1140,#1142);
#1144=EDGE_CURVE('',#1127,#1135,#1143,.T.);
#1145=ORIENTED_EDGE('',*,*,#1144,.T.);
#1146=CARTESIAN_POINT('',(6.6000,-4.3500,0.3000));
#1147=DIRECTION('',(0.0000,1.0000,0.0000));
#1148=VECTOR('',#1147,0.9000);
#1149=LINE('',#1146,#1148);
#1150=EDGE_CURVE('',#1135,#1139,#1149,.T.);
#1151=ORIENTED_EDGE('',*,*,#1150,.T.);
#1152=CARTESIAN_POINT('',(6.6000,-3.4500,0.3000));
#1153=DIRECTION('',(-1.0000,0.0000,0.0000));
#1154=VECTOR('',#1153,1.2000);
#1155=LINE('',#1152,#1154);
#1156=EDGE_CURVE('',#1139,#1131,#1155,.T.);
#1157=ORIENTED_EDGE('',*,*,#1156,.T.);
#1158=CARTESIAN_POINT('',(5.4000,-3.4500,0.3000));
#1159=DIRECTION('',(0.0000,-1.0000,0.0000));
#1160=VECTOR('',#1159,0.9000);
#1161=LINE('',#1158,#1160);
#1162=EDGE_CURVE('',#1131,#1127,#1161,.T.);
#1163=ORIENTED_EDGE('',*,*,#1162,.T.);
#1164=EDGE_LOOP('',(#1145,#1151,#1157,#1163));
#1165=FACE_OUTER_BOUND('',#1164,.T.);
#1166=CARTESIAN_POINT('',(5.4000,-4.3500,0.3000));
#1167=DIRECTION('',(0.0000,0.0000,1.0000));
#1168=DIRECTION('',(1.0000,0.0000,0.0000));
#1169=AXIS2_PLACEMENT_3D('',#1166,#1167,#1168);
#1170=PLANE('',#1169);
#1171=ADVANCED_FACE('',(#1165),#1170,.T.);
#1172=CARTESIAN_POINT('',(5.4000,-4.3500,0.0000));
#1173=DIRECTION('',(0.0000,1.0000,0.0000));
#1174=VECTOR('',#1173,0.9000);
#1175=LINE('',#1172,#1174);
#1176=EDGE_CURVE('',#1125,#1129,#1175,.T.);
#1177=ORIENTED_EDGE('',*,*,#1176,.T.);
#1178=CARTESIAN_POINT('',(5.4000,-3.4500,0.0000));
#1179=DIRECTION('',(1.0000,0.0000,0.0000));
#1180=VECTOR('',#1179,1.2000);
#1181=LINE('',#1178,#1180);
#1182=EDGE_CURVE('',#1129,#1137,#1181,.T.);
#1183=ORIENTED_EDGE('',*,*,#1182,.T.);
#1184=CARTESIAN_POINT('',(6.6000,-3.4500,0.0000));
#1185=DIRECTION('',(0.0000,-1.0000,0.0000));
#1186=VECTOR('',#1185,0.9000);
#1187=LINE('',#1184,#1186);
#1188=EDGE_CURVE('',#1137,#1133,#1187,.T.);
#1189=ORIENTED_EDGE('',*,*,#1188,.T.);
#1190=CARTESIAN_POINT('',(6.6000,-4.3500,0.0000));
#1191=DIRECTION('',(-1.0000,0.0000,0.0000));
#1192=VECTOR('',#1191,1.2000);
#1193=LINE('',#1190,#1192);
#1194=EDGE_CURVE('',#1133,#1125,#1193,.T.);
#1195=ORIENTED_EDGE('',*,*,#1194,.T.);
#1196=EDGE_LOOP('',(#1177,#1183,#1189,#1195));
#1197=FACE_OUTER_BOUND('',#1196,.T.);
#1198=CARTESIAN_POINT('',(5.4000,-4.3500,0.0000));
#1199=DIRECTION('',(0.0000,0.0000,-1.0000));
#1200=DIRECTION('',(1.0000,0.0000,0.0000));
#1201=AXIS2_PLACEMENT_3D('',#1198,#1199,#1200);
#1202=PLANE('',#1201);
#1203=ADVANCED_FACE('',(#1197),#1202,.T.);
#1204=ORIENTED_EDGE('',*,*,#1188,.F.);
#1205=CARTESIAN_POINT('',(6.6000,-3.4500,0.0000));
#1206=DIRECTION('',(0.0000,0.0000,1.0000));
#1207=VECTOR('',#1206,0.3000);
#1208=LINE('',#1205,#1207);
#1209=EDGE_CURVE('',#1137,#1139,#1208,.T.);
#1210=ORIENTED_EDGE('',*,*,#1209,.T.);
#1211=ORIENTED_EDGE('',*,*,#1150,.F.);
#1212=CARTESIAN_POINT('',(6.6000,-4.3500,0.3000));
#1213=DIRECTION('',(0.0000,0.0000,-1.0000));
#1214=VECTOR('',#1213,0.3000);
#1215=LINE('',#1212,#1214);
#1216=EDGE_CURVE('',#1135,#1133,#1215,.T.);
#1217=ORIENTED_EDGE('',*,*,#1216,.T.);
#1218=EDGE_LOOP('',(#1204,#1210,#1211,#1217));
#1219=FACE_OUTER_BOUND('',#1218,.T.);
#1220=CARTESIAN_POINT('',(6.6000,-4.3500,0.0000));
#1221=DIRECTION('',(1.0000,0.0000,0.0000));
#1222=DIRECTION('',(0.0000,1.0000,0.0000));
#1223=AXIS2_PLACEMENT_3D('',#1220,#1221,#1222);
#1224=PLANE('',#1223);
#1225=ADVANCED_FACE('',(#1219),#1224,.T.);
#1226=CARTESIAN_POINT('',(5.4000,-4.3500,0.0000));
#1227=DIRECTION('',(0.0000,0.0000,1.0000));
#1228=VECTOR('',#1227,0.3000);
#1229=LINE('',#1226,#1228);
#1230=EDGE_CURVE('',#1125,#1127,#1229,.T.);
#1231=ORIENTED_EDGE('',*,*,#1230,.T.);
#1232=ORIENTED_EDGE('',*,*,#1162,.F.);
#1233=CARTESIAN_POINT('',(5.4000,-3.4500,0.3000));
#1234=DIRECTION('',(0.0000,0.0000,-1.0000));
#1235=VECTOR('',#1234,0.3000);
#1236=LINE('',#1233,#1235);
#1237=EDGE_CURVE('',#1131,#1129,#1236,.T.);
#1238=ORIENTED_EDGE('',*,*,#1237,.T.);
#1239=ORIENTED_EDGE('',*,*,#1176,.F.);
#1240=EDGE_LOOP('',(#1231,#1232,#1238,#1239));
#1241=FACE_OUTER_BOUND('',#1240,.T.);
#1242=CARTESIAN_POINT('',(5.4000,-4.3500,0.0000));
#1243=DIRECTION('',(-1.0000,0.0000,0.0000));
#1244=DIRECTION('',(0.0000,1.0000,0.0000));
#1245=AXIS2_PLACEMENT_3D('',#1242,#1243,#1244);
#1246=PLANE('',#1245);
#1247=ADVANCED_FACE('',(#1241),#1246,.T.);
#1248=ORIENTED_EDGE('',*,*,#1237,.F.);
#1249=ORIENTED_EDGE('',*,*,#1156,.F.);
#1250=ORIENTED_EDGE('',*,*,#1209,.F.);
#1251=ORIENTED_EDGE('',*,*,#1182,.F.);
#1252=EDGE_LOOP('',(#1248,#1249,#1250,#1251));
#1253=FACE_OUTER_BOUND('',#1252,.T.);
#1254=CARTESIAN_POINT('',(5.4000,-3.4500,0.0000));
#1255=DIRECTION('',(0.0000,1.0000,0.0000));
#1256=DIRECTION('',(1.0000,0.0000,0.0000));
#1257=AXIS2_PLACEMENT_3D('',#1254,#1255,#1256);
#1258=PLANE('',#1257);
#1259=ADVANCED_FACE('',(#1253),#1258,.T.);
#1260=ORIENTED_EDGE('',*,*,#1194,.F.);
#1261=ORIENTED_EDGE('',*,*,#1216,.F.);
#1262=ORIENTED_EDGE('',*,*,#1144,.F.);
#1263=ORIENTED_EDGE('',*,*,#1230,.F.);
#1264=EDGE_LOOP('',(#1260,#1261,#1262,#1263));
#1265=FACE_OUTER_BOUND('',#1264,.T.);
#1266=CARTESIAN_POINT('',(5.4000,-4.3500,0.0000));
#1267=DIRECTION('',(0.0000,-1.0000,0.0000));
#1268=DIRECTION('',(1.0000,0.0000,0.0000));
#1269=AXIS2_PLACEMENT_3D('',#1266,#1267,#1268);
#1270=PLANE('',#1269);
#1271=ADVANCED_FACE('',(#1265),#1270,.T.);
#1272=CLOSED_SHELL('',(#1171,#1203,#1225,#1247,#1259,#1271));
#1273=MANIFOLD_SOLID_BREP('',#1272);
#1274=COLOUR_RGB('',0.850,0.640,0.220);
#1275=FILL_AREA_STYLE_COLOUR('',#1274);
#1276=FILL_AREA_STYLE('',(#1275));
#1277=SURFACE_STYLE_FILL_AREA(#1276);
#1278=SURFACE_SIDE_STYLE('',(#1277));
#1279=SURFACE_STYLE_USAGE(.BOTH.,#1278);
#1280=PRESENTATION_STYLE_ASSIGNMENT((#1279));
#1281=STYLED_ITEM('',(#1280),#1273);
#1282=CARTESIAN_POINT('',(9.6000,3.4500,0.0000));
#1283=VERTEX_POINT('',#1282);
#1284=CARTESIAN_POINT('',(9.6000,3.4500,0.3000));
#1285=VERTEX_POINT('',#1284);
#1286=CARTESIAN_POINT('',(9.6000,4.3500,0.0000));
#1287=VERTEX_POINT('',#1286);
#1288=CARTESIAN_POINT('',(9.6000,4.3500,0.3000));
#1289=VERTEX_POINT('',#1288);
#1290=CARTESIAN_POINT('',(10.8000,3.4500,0.0000));
#1291=VERTEX_POINT('',#1290);
#1292=CARTESIAN_POINT('',(10.8000,3.4500,0.3000));
#1293=VERTEX_POINT('',#1292);
#1294=CARTESIAN_POINT('',(10.8000,4.3500,0.0000));
#1295=VERTEX_POINT('',#1294);
#1296=CARTESIAN_POINT('',(10.8000,4.3500,0.3000));
#1297=VERTEX_POINT('',#1296);
#1298=CARTESIAN_POINT('',(9.6000,3.4500,0.3000));
#1299=DIRECTION('',(1.0000,0.0000,0.0000));
#1300=VECTOR('',#1299,1.2000);
#1301=LINE('',#1298,#1300);
#1302=EDGE_CURVE('',#1285,#1293,#1301,.T.);
#1303=ORIENTED_EDGE('',*,*,#1302,.T.);
#1304=CARTESIAN_POINT('',(10.8000,3.4500,0.3000));
#1305=DIRECTION('',(0.0000,1.0000,0.0000));
#1306=VECTOR('',#1305,0.9000);
#1307=LINE('',#1304,#1306);
#1308=EDGE_CURVE('',#1293,#1297,#1307,.T.);
#1309=ORIENTED_EDGE('',*,*,#1308,.T.);
#1310=CARTESIAN_POINT('',(10.8000,4.3500,0.3000));
#1311=DIRECTION('',(-1.0000,0.0000,0.0000));
#1312=VECTOR('',#1311,1.2000);
#1313=LINE('',#1310,#1312);
#1314=EDGE_CURVE('',#1297,#1289,#1313,.T.);
#1315=ORIENTED_EDGE('',*,*,#1314,.T.);
#1316=CARTESIAN_POINT('',(9.6000,4.3500,0.3000));
#1317=DIRECTION('',(0.0000,-1.0000,0.0000));
#1318=VECTOR('',#1317,0.9000);
#1319=LINE('',#1316,#1318);
#1320=EDGE_CURVE('',#1289,#1285,#1319,.T.);
#1321=ORIENTED_EDGE('',*,*,#1320,.T.);
#1322=EDGE_LOOP('',(#1303,#1309,#1315,#1321));
#1323=FACE_OUTER_BOUND('',#1322,.T.);
#1324=CARTESIAN_POINT('',(9.6000,3.4500,0.3000));
#1325=DIRECTION('',(0.0000,0.0000,1.0000));
#1326=DIRECTION('',(1.0000,0.0000,0.0000));
#1327=AXIS2_PLACEMENT_3D('',#1324,#1325,#1326);
#1328=PLANE('',#1327);
#1329=ADVANCED_FACE('',(#1323),#1328,.T.);
#1330=CARTESIAN_POINT('',(9.6000,3.4500,0.0000));
#1331=DIRECTION('',(0.0000,1.0000,0.0000));
#1332=VECTOR('',#1331,0.9000);
#1333=LINE('',#1330,#1332);
#1334=EDGE_CURVE('',#1283,#1287,#1333,.T.);
#1335=ORIENTED_EDGE('',*,*,#1334,.T.);
#1336=CARTESIAN_POINT('',(9.6000,4.3500,0.0000));
#1337=DIRECTION('',(1.0000,0.0000,0.0000));
#1338=VECTOR('',#1337,1.2000);
#1339=LINE('',#1336,#1338);
#1340=EDGE_CURVE('',#1287,#1295,#1339,.T.);
#1341=ORIENTED_EDGE('',*,*,#1340,.T.);
#1342=CARTESIAN_POINT('',(10.8000,4.3500,0.0000));
#1343=DIRECTION('',(0.0000,-1.0000,0.0000));
#1344=VECTOR('',#1343,0.9000);
#1345=LINE('',#1342,#1344);
#1346=EDGE_CURVE('',#1295,#1291,#1345,.T.);
#1347=ORIENTED_EDGE('',*,*,#1346,.T.);
#1348=CARTESIAN_POINT('',(10.8000,3.4500,0.0000));
#1349=DIRECTION('',(-1.0000,0.0000,0.0000));
#1350=VECTOR('',#1349,1.2000);
#1351=LINE('',#1348,#1350);
#1352=EDGE_CURVE('',#1291,#1283,#1351,.T.);
#1353=ORIENTED_EDGE('',*,*,#1352,.T.);
#1354=EDGE_LOOP('',(#1335,#1341,#1347,#1353));
#1355=FACE_OUTER_BOUND('',#1354,.T.);
#1356=CARTESIAN_POINT('',(9.6000,3.4500,0.0000));
#1357=DIRECTION('',(0.0000,0.0000,-1.0000));
#1358=DIRECTION('',(1.0000,0.0000,0.0000));
#1359=AXIS2_PLACEMENT_3D('',#1356,#1357,#1358);
#1360=PLANE('',#1359);
#1361=ADVANCED_FACE('',(#1355),#1360,.T.);
#1362=ORIENTED_EDGE('',*,*,#1346,.F.);
#1363=CARTESIAN_POINT('',(10.8000,4.3500,0.0000));
#1364=DIRECTION('',(0.0000,0.0000,1.0000));
#1365=VECTOR('',#1364,0.3000);
#1366=LINE('',#1363,#1365);
#1367=EDGE_CURVE('',#1295,#1297,#1366,.T.);
#1368=ORIENTED_EDGE('',*,*,#1367,.T.);
#1369=ORIENTED_EDGE('',*,*,#1308,.F.);
#1370=CARTESIAN_POINT('',(10.8000,3.4500,0.3000));
#1371=DIRECTION('',(0.0000,0.0000,-1.0000));
#1372=VECTOR('',#1371,0.3000);
#1373=LINE('',#1370,#1372);
#1374=EDGE_CURVE('',#1293,#1291,#1373,.T.);
#1375=ORIENTED_EDGE('',*,*,#1374,.T.);
#1376=EDGE_LOOP('',(#1362,#1368,#1369,#1375));
#1377=FACE_OUTER_BOUND('',#1376,.T.);
#1378=CARTESIAN_POINT('',(10.8000,3.4500,0.0000));
#1379=DIRECTION('',(1.0000,0.0000,0.0000));
#1380=DIRECTION('',(0.0000,1.0000,0.0000));
#1381=AXIS2_PLACEMENT_3D('',#1378,#1379,#1380);
#1382=PLANE('',#1381);
#1383=ADVANCED_FACE('',(#1377),#1382,.T.);
#1384=CARTESIAN_POINT('',(9.6000,3.4500,0.0000));
#1385=DIRECTION('',(0.0000,0.0000,1.0000));
#1386=VECTOR('',#1385,0.3000);
#1387=LINE('',#1384,#1386);
#1388=EDGE_CURVE('',#1283,#1285,#1387,.T.);
#1389=ORIENTED_EDGE('',*,*,#1388,.T.);
#1390=ORIENTED_EDGE('',*,*,#1320,.F.);
#1391=CARTESIAN_POINT('',(9.6000,4.3500,0.3000));
#1392=DIRECTION('',(0.0000,0.0000,-1.0000));
#1393=VECTOR('',#1392,0.3000);
#1394=LINE('',#1391,#1393);
#1395=EDGE_CURVE('',#1289,#1287,#1394,.T.);
#1396=ORIENTED_EDGE('',*,*,#1395,.T.);
#1397=ORIENTED_EDGE('',*,*,#1334,.F.);
#1398=EDGE_LOOP('',(#1389,#1390,#1396,#1397));
#1399=FACE_OUTER_BOUND('',#1398,.T.);
#1400=CARTESIAN_POINT('',(9.6000,3.4500,0.0000));
#1401=DIRECTION('',(-1.0000,0.0000,0.0000));
#1402=DIRECTION('',(0.0000,1.0000,0.0000));
#1403=AXIS2_PLACEMENT_3D('',#1400,#1401,#1402);
#1404=PLANE('',#1403);
#1405=ADVANCED_FACE('',(#1399),#1404,.T.);
#1406=ORIENTED_EDGE('',*,*,#1395,.F.);
#1407=ORIENTED_EDGE('',*,*,#1314,.F.);
#1408=ORIENTED_EDGE('',*,*,#1367,.F.);
#1409=ORIENTED_EDGE('',*,*,#1340,.F.);
#1410=EDGE_LOOP('',(#1406,#1407,#1408,#1409));
#1411=FACE_OUTER_BOUND('',#1410,.T.);
#1412=CARTESIAN_POINT('',(9.6000,4.3500,0.0000));
#1413=DIRECTION('',(0.0000,1.0000,0.0000));
#1414=DIRECTION('',(1.0000,0.0000,0.0000));
#1415=AXIS2_PLACEMENT_3D('',#1412,#1413,#1414);
#1416=PLANE('',#1415);
#1417=ADVANCED_FACE('',(#1411),#1416,.T.);
#1418=ORIENTED_EDGE('',*,*,#1352,.F.);
#1419=ORIENTED_EDGE('',*,*,#1374,.F.);
#1420=ORIENTED_EDGE('',*,*,#1302,.F.);
#1421=ORIENTED_EDGE('',*,*,#1388,.F.);
#1422=EDGE_LOOP('',(#1418,#1419,#1420,#1421));
#1423=FACE_OUTER_BOUND('',#1422,.T.);
#1424=CARTESIAN_POINT('',(9.6000,3.4500,0.0000));
#1425=DIRECTION('',(0.0000,-1.0000,0.0000));
#1426=DIRECTION('',(1.0000,0.0000,0.0000));
#1427=AXIS2_PLACEMENT_3D('',#1424,#1425,#1426);
#1428=PLANE('',#1427);
#1429=ADVANCED_FACE('',(#1423),#1428,.T.);
#1430=CLOSED_SHELL('',(#1329,#1361,#1383,#1405,#1417,#1429));
#1431=MANIFOLD_SOLID_BREP('',#1430);
#1432=COLOUR_RGB('',0.850,0.640,0.220);
#1433=FILL_AREA_STYLE_COLOUR('',#1432);
#1434=FILL_AREA_STYLE('',(#1433));
#1435=SURFACE_STYLE_FILL_AREA(#1434);
#1436=SURFACE_SIDE_STYLE('',(#1435));
#1437=SURFACE_STYLE_USAGE(.BOTH.,#1436);
#1438=PRESENTATION_STYLE_ASSIGNMENT((#1437));
#1439=STYLED_ITEM('',(#1438),#1431);
#1440=CARTESIAN_POINT('',(9.6000,-4.3500,0.0000));
#1441=VERTEX_POINT('',#1440);
#1442=CARTESIAN_POINT('',(9.6000,-4.3500,0.3000));
#1443=VERTEX_POINT('',#1442);
#1444=CARTESIAN_POINT('',(9.6000,-3.4500,0.0000));
#1445=VERTEX_POINT('',#1444);
#1446=CARTESIAN_POINT('',(9.6000,-3.4500,0.3000));
#1447=VERTEX_POINT('',#1446);
#1448=CARTESIAN_POINT('',(10.8000,-4.3500,0.0000));
#1449=VERTEX_POINT('',#1448);
#1450=CARTESIAN_POINT('',(10.8000,-4.3500,0.3000));
#1451=VERTEX_POINT('',#1450);
#1452=CARTESIAN_POINT('',(10.8000,-3.4500,0.0000));
#1453=VERTEX_POINT('',#1452);
#1454=CARTESIAN_POINT('',(10.8000,-3.4500,0.3000));
#1455=VERTEX_POINT('',#1454);
#1456=CARTESIAN_POINT('',(9.6000,-4.3500,0.3000));
#1457=DIRECTION('',(1.0000,0.0000,0.0000));
#1458=VECTOR('',#1457,1.2000);
#1459=LINE('',#1456,#1458);
#1460=EDGE_CURVE('',#1443,#1451,#1459,.T.);
#1461=ORIENTED_EDGE('',*,*,#1460,.T.);
#1462=CARTESIAN_POINT('',(10.8000,-4.3500,0.3000));
#1463=DIRECTION('',(0.0000,1.0000,0.0000));
#1464=VECTOR('',#1463,0.9000);
#1465=LINE('',#1462,#1464);
#1466=EDGE_CURVE('',#1451,#1455,#1465,.T.);
#1467=ORIENTED_EDGE('',*,*,#1466,.T.);
#1468=CARTESIAN_POINT('',(10.8000,-3.4500,0.3000));
#1469=DIRECTION('',(-1.0000,0.0000,0.0000));
#1470=VECTOR('',#1469,1.2000);
#1471=LINE('',#1468,#1470);
#1472=EDGE_CURVE('',#1455,#1447,#1471,.T.);
#1473=ORIENTED_EDGE('',*,*,#1472,.T.);
#1474=CARTESIAN_POINT('',(9.6000,-3.4500,0.3000));
#1475=DIRECTION('',(0.0000,-1.0000,0.0000));
#1476=VECTOR('',#1475,0.9000);
#1477=LINE('',#1474,#1476);
#1478=EDGE_CURVE('',#1447,#1443,#1477,.T.);
#1479=ORIENTED_EDGE('',*,*,#1478,.T.);
#1480=EDGE_LOOP('',(#1461,#1467,#1473,#1479));
#1481=FACE_OUTER_BOUND('',#1480,.T.);
#1482=CARTESIAN_POINT('',(9.6000,-4.3500,0.3000));
#1483=DIRECTION('',(0.0000,0.0000,1.0000));
#1484=DIRECTION('',(1.0000,0.0000,0.0000));
#1485=AXIS2_PLACEMENT_3D('',#1482,#1483,#1484);
#1486=PLANE('',#1485);
#1487=ADVANCED_FACE('',(#1481),#1486,.T.);
#1488=CARTESIAN_POINT('',(9.6000,-4.3500,0.0000));
#1489=DIRECTION('',(0.0000,1.0000,0.0000));
#1490=VECTOR('',#1489,0.9000);
#1491=LINE('',#1488,#1490);
#1492=EDGE_CURVE('',#1441,#1445,#1491,.T.);
#1493=ORIENTED_EDGE('',*,*,#1492,.T.);
#1494=CARTESIAN_POINT('',(9.6000,-3.4500,0.0000));
#1495=DIRECTION('',(1.0000,0.0000,0.0000));
#1496=VECTOR('',#1495,1.2000);
#1497=LINE('',#1494,#1496);
#1498=EDGE_CURVE('',#1445,#1453,#1497,.T.);
#1499=ORIENTED_EDGE('',*,*,#1498,.T.);
#1500=CARTESIAN_POINT('',(10.8000,-3.4500,0.0000));
#1501=DIRECTION('',(0.0000,-1.0000,0.0000));
#1502=VECTOR('',#1501,0.9000);
#1503=LINE('',#1500,#1502);
#1504=EDGE_CURVE('',#1453,#1449,#1503,.T.);
#1505=ORIENTED_EDGE('',*,*,#1504,.T.);
#1506=CARTESIAN_POINT('',(10.8000,-4.3500,0.0000));
#1507=DIRECTION('',(-1.0000,0.0000,0.0000));
#1508=VECTOR('',#1507,1.2000);
#1509=LINE('',#1506,#1508);
#1510=EDGE_CURVE('',#1449,#1441,#1509,.T.);
#1511=ORIENTED_EDGE('',*,*,#1510,.T.);
#1512=EDGE_LOOP('',(#1493,#1499,#1505,#1511));
#1513=FACE_OUTER_BOUND('',#1512,.T.);
#1514=CARTESIAN_POINT('',(9.6000,-4.3500,0.0000));
#1515=DIRECTION('',(0.0000,0.0000,-1.0000));
#1516=DIRECTION('',(1.0000,0.0000,0.0000));
#1517=AXIS2_PLACEMENT_3D('',#1514,#1515,#1516);
#1518=PLANE('',#1517);
#1519=ADVANCED_FACE('',(#1513),#1518,.T.);
#1520=ORIENTED_EDGE('',*,*,#1504,.F.);
#1521=CARTESIAN_POINT('',(10.8000,-3.4500,0.0000));
#1522=DIRECTION('',(0.0000,0.0000,1.0000));
#1523=VECTOR('',#1522,0.3000);
#1524=LINE('',#1521,#1523);
#1525=EDGE_CURVE('',#1453,#1455,#1524,.T.);
#1526=ORIENTED_EDGE('',*,*,#1525,.T.);
#1527=ORIENTED_EDGE('',*,*,#1466,.F.);
#1528=CARTESIAN_POINT('',(10.8000,-4.3500,0.3000));
#1529=DIRECTION('',(0.0000,0.0000,-1.0000));
#1530=VECTOR('',#1529,0.3000);
#1531=LINE('',#1528,#1530);
#1532=EDGE_CURVE('',#1451,#1449,#1531,.T.);
#1533=ORIENTED_EDGE('',*,*,#1532,.T.);
#1534=EDGE_LOOP('',(#1520,#1526,#1527,#1533));
#1535=FACE_OUTER_BOUND('',#1534,.T.);
#1536=CARTESIAN_POINT('',(10.8000,-4.3500,0.0000));
#1537=DIRECTION('',(1.0000,0.0000,0.0000));
#1538=DIRECTION('',(0.0000,1.0000,0.0000));
#1539=AXIS2_PLACEMENT_3D('',#1536,#1537,#1538);
#1540=PLANE('',#1539);
#1541=ADVANCED_FACE('',(#1535),#1540,.T.);
#1542=CARTESIAN_POINT('',(9.6000,-4.3500,0.0000));
#1543=DIRECTION('',(0.0000,0.0000,1.0000));
#1544=VECTOR('',#1543,0.3000);
#1545=LINE('',#1542,#1544);
#1546=EDGE_CURVE('',#1441,#1443,#1545,.T.);
#1547=ORIENTED_EDGE('',*,*,#1546,.T.);
#1548=ORIENTED_EDGE('',*,*,#1478,.F.);
#1549=CARTESIAN_POINT('',(9.6000,-3.4500,0.3000));
#1550=DIRECTION('',(0.0000,0.0000,-1.0000));
#1551=VECTOR('',#1550,0.3000);
#1552=LINE('',#1549,#1551);
#1553=EDGE_CURVE('',#1447,#1445,#1552,.T.);
#1554=ORIENTED_EDGE('',*,*,#1553,.T.);
#1555=ORIENTED_EDGE('',*,*,#1492,.F.);
#1556=EDGE_LOOP('',(#1547,#1548,#1554,#1555));
#1557=FACE_OUTER_BOUND('',#1556,.T.);
#1558=CARTESIAN_POINT('',(9.6000,-4.3500,0.0000));
#1559=DIRECTION('',(-1.0000,0.0000,0.0000));
#1560=DIRECTION('',(0.0000,1.0000,0.0000));
#1561=AXIS2_PLACEMENT_3D('',#1558,#1559,#1560);
#1562=PLANE('',#1561);
#1563=ADVANCED_FACE('',(#1557),#1562,.T.);
#1564=ORIENTED_EDGE('',*,*,#1553,.F.);
#1565=ORIENTED_EDGE('',*,*,#1472,.F.);
#1566=ORIENTED_EDGE('',*,*,#1525,.F.);
#1567=ORIENTED_EDGE('',*,*,#1498,.F.);
#1568=EDGE_LOOP('',(#1564,#1565,#1566,#1567));
#1569=FACE_OUTER_BOUND('',#1568,.T.);
#1570=CARTESIAN_POINT('',(9.6000,-3.4500,0.0000));
#1571=DIRECTION('',(0.0000,1.0000,0.0000));
#1572=DIRECTION('',(1.0000,0.0000,0.0000));
#1573=AXIS2_PLACEMENT_3D('',#1570,#1571,#1572);
#1574=PLANE('',#1573);
#1575=ADVANCED_FACE('',(#1569),#1574,.T.);
#1576=ORIENTED_EDGE('',*,*,#1510,.F.);
#1577=ORIENTED_EDGE('',*,*,#1532,.F.);
#1578=ORIENTED_EDGE('',*,*,#1460,.F.);
#1579=ORIENTED_EDGE('',*,*,#1546,.F.);
#1580=EDGE_LOOP('',(#1576,#1577,#1578,#1579));
#1581=FACE_OUTER_BOUND('',#1580,.T.);
#1582=CARTESIAN_POINT('',(9.6000,-4.3500,0.0000));
#1583=DIRECTION('',(0.0000,-1.0000,0.0000));
#1584=DIRECTION('',(1.0000,0.0000,0.0000));
#1585=AXIS2_PLACEMENT_3D('',#1582,#1583,#1584);
#1586=PLANE('',#1585);
#1587=ADVANCED_FACE('',(#1581),#1586,.T.);
#1588=CLOSED_SHELL('',(#1487,#1519,#1541,#1563,#1575,#1587));
#1589=MANIFOLD_SOLID_BREP('',#1588);
#1590=COLOUR_RGB('',0.850,0.640,0.220);
#1591=FILL_AREA_STYLE_COLOUR('',#1590);
#1592=FILL_AREA_STYLE('',(#1591));
#1593=SURFACE_STYLE_FILL_AREA(#1592);
#1594=SURFACE_SIDE_STYLE('',(#1593));
#1595=SURFACE_STYLE_USAGE(.BOTH.,#1594);
#1596=PRESENTATION_STYLE_ASSIGNMENT((#1595));
#1597=STYLED_ITEM('',(#1596),#1589);
#1598=ADVANCED_BREP_SHAPE_REPRESENTATION('',(#17,#167,#325,#483,#641,#799,#957,#1115,#1273,#1431,#1589),#13);
#1599=SHAPE_DEFINITION_REPRESENTATION(#8,#1598);
#1600=MECHANICAL_DESIGN_GEOMETRIC_PRESENTATION_REPRESENTATION('',(#175,#333,#491,#649,#807,#965,#1123,#1281,#1439,#1597),#13);
ENDSEC;
END-ISO-10303-21;
